<svg width="520" height="228" fill="none" xmlns="http://www.w3.org/2000/svg"><g clip-path="url(#a)" fill="#fff"><path d="M338.522 17.273h-22.188V127.52h22.188V17.273zM192.239 80.65V17.272h22.502v62.994c0 14.904 8.966 28.102 27.282 28.102 18.316 0 26.444-12.362 26.444-28.102V17.272h22.188V80.65c0 28.485-17.897 49.378-48.632 49.378s-49.784-20.824-49.784-49.378zM167.505 17.273h-22.152V127.52h22.152V17.273zM96.302 62.82 64.729 95.589h-4.675L27.644 62.82v64.701H5.421V17.273h5.965l50.342 48.96 50.726-48.96h5.965V127.52H96.267l.035-64.701zM424.309 17.377v110.144h-20.025V38.166h-17.758V17.273l37.783.104zM502.384 88.311V17.343h-25.119l-42.213 74.904v14.137h47.446v20.894h19.886v-20.894h15.141V88.311h-15.141zm-44.656.453 25.887-47.15v47.15h-25.887z"/></g><path d="M10.576 174.572c-1.568 3.584-3.117 6.608-4.648 9.072l-1.344-1.176c1.419-2.24 2.837-5.04 4.256-8.4 1.456-3.36 2.613-6.534 3.472-9.52l1.848.448c-.635 2.128-1.568 4.704-2.8 7.728h10.248v1.848H10.576zm42.672 26.04-.168 8.512c-.037 1.232-.243 2.146-.616 2.744-.336.634-.859 1.064-1.568 1.288-.672.224-1.661.336-2.968.336h-3.416c-1.717 0-2.93-.318-3.64-.952-.71-.635-1.064-1.848-1.064-3.64v-15.176h-7.112c-.037.485-.056 1.25-.056 2.296-.187 3.322-.672 6.066-1.456 8.232a15.41 15.41 0 0 1-3.64 5.712c-1.605 1.605-3.864 3.322-6.776 5.152l-1.12-1.624c2.837-1.718 5.003-3.323 6.496-4.816a13.62 13.62 0 0 0 3.36-5.208c.747-1.979 1.195-4.536 1.344-7.672.037-.336.056-1.027.056-2.072h-6.328v-17.248h14.168c.821-1.307 2.613-4.256 5.376-8.848l1.624-2.688 1.68.896c-.97 1.568-1.848 2.986-2.632 4.256a109.608 109.608 0 0 1-1.904 3.136 82.298 82.298 0 0 1-1.96 3.248h8.232v17.248h-7.504v14.728c0 1.306.224 2.184.672 2.632.448.41 1.325.616 2.632.616h2.744c1.045 0 1.81-.075 2.296-.224.523-.15.877-.43 1.064-.84.187-.448.299-1.139.336-2.072.037-1.232.056-2.707.056-4.424.037-1.718.056-3.006.056-3.864l1.736.336zm-20.888-25.48c-.299-.486-1.773-2.819-4.424-7l-1.512-2.296 1.4-.896a147.888 147.888 0 0 1 3.024 4.48 192.14 192.14 0 0 1 3.08 4.76l-1.568.952zm15.064 3.192h-21v13.496h21v-13.496zM20.656 203.58l.672 1.848-9.632 8.12-1.12-1.4c.485-.523.784-.896.896-1.12.15-.262.224-.56.224-.896V194.62H4.808v-1.848h6.888v-8.792H7.104v-1.848H19.76v1.848h-6.328v8.792h7.728v1.848h-7.728v15.232l7.224-6.272zm186.256-25.424v1.624h-47.936v-1.624h14.784a122.434 122.434 0 0 1-.728-2.856c-.149-.56-.317-1.176-.504-1.848a26.601 26.601 0 0 0-.56-2.184h-9.856V169.7H183c-1.083-2.651-1.848-4.462-2.296-5.432l1.96-.504c.821 1.792 1.661 3.77 2.52 5.936h18.648v1.568h-9.856c-1.008 3.061-1.811 5.357-2.408 6.888h15.344zm-33.096-6.888c.336 1.157.915 3.453 1.736 6.888h14.112a106.215 106.215 0 0 0 2.408-6.888h-18.256zm-7.672 13.216h33.488v14.728h-33.488v-14.728zm31.584 6.664v-5.04h-29.736v5.04h29.736zm-29.736 1.512v5.04h29.736v-5.04h-29.736zm18.648 15.008-6.552-5.824 1.176-1.176c.112.112 1.661 1.437 4.648 3.976l1.96 1.736-1.232 1.288zm-27.72 3.808c1.195-1.27 2.427-2.819 3.696-4.648 1.269-1.83 2.352-3.584 3.248-5.264l1.68.84c-.896 1.754-2.016 3.584-3.36 5.488-1.307 1.866-2.576 3.453-3.808 4.76l-1.456-1.176zm34.16-2.744c.112-2.352.168-3.79.168-4.312l1.848.448-.224 4.256c-.112 1.642-.579 2.744-1.4 3.304-.784.597-2.259.896-4.424.896h-11.984c-1.904 0-3.248-.355-4.032-1.064-.784-.672-1.176-1.904-1.176-3.696v-6.832h1.904v6.664c0 1.269.261 2.146.784 2.632.56.485 1.568.728 3.024.728h11.144c1.195 0 2.091-.075 2.688-.224.597-.187 1.008-.486 1.232-.896.261-.448.411-1.083.448-1.904zm6.776-7a539.717 539.717 0 0 1 7.616 9.744l-1.512 1.064-.952-1.232c-3.397-4.406-5.637-7.243-6.72-8.512l1.568-1.064zm137.256-5.936H326.36v13.328c0 1.269-.149 2.221-.448 2.856-.299.634-.821 1.082-1.568 1.344-.747.261-1.885.392-3.416.392H317.4l-.392-1.848h3.584c1.232 0 2.109-.075 2.632-.224.56-.187.915-.486 1.064-.896.187-.448.28-1.176.28-2.184v-12.768h-10.976v-1.736h10.976v-8.232h-11.872v-1.736h8.064c-.112-.486-.877-3.622-2.296-9.408-.261-.934-.411-1.512-.448-1.736h-3.584v-1.736h10.64a187.426 187.426 0 0 0-2.24-6.832l1.792-.392c.523 1.381 1.325 3.789 2.408 7.224h9.52v1.736h-3.696a262.567 262.567 0 0 1-1.344 5.824 138.552 138.552 0 0 1-1.4 5.32h8.008v1.736h-11.76v8.232h10.752v1.736zm24.08-10.696v1.848h-6.72v27.832h-1.792v-27.832h-9.632v.168c0 5.114-.187 9.221-.56 12.32-.373 3.098-1.064 5.88-2.072 8.344-1.008 2.426-2.539 4.965-4.592 7.616l-1.624-1.008c1.979-2.502 3.453-4.928 4.424-7.28.971-2.39 1.624-5.096 1.96-8.12.373-3.062.56-7.112.56-12.152v-15.624a75.454 75.454 0 0 0 9.352-1.68c3.061-.784 5.787-1.662 8.176-2.632l.56 1.792c-4.629 1.941-10.024 3.341-16.184 4.2V185.1h18.144zm-41.44-12.152 1.064 4.312c.933 3.658 1.493 5.936 1.68 6.832h5.936c.373-1.232.821-2.968 1.344-5.208.523-2.24.952-4.219 1.288-5.936h-11.312zm.616 26.152c-1.045 2.426-2.091 4.61-3.136 6.552a47.214 47.214 0 0 1-3.36 5.432l-1.344-.952a41.497 41.497 0 0 0 3.248-5.264c.971-1.867 1.96-4.014 2.968-6.44l1.624.672zm14.952 8.736c-2.352-3.547-4.237-6.291-5.656-8.232l1.288-1.008 3.584 5.04 2.184 3.136-1.4 1.064zm157.864 1.96h21.952v1.904h-47.208v-1.904h23.184v-15.568h-17.976v-1.904h17.976v-13.496h-15.12c-1.867 3.808-4.163 7.504-6.888 11.088l-1.68-1.008c2.539-3.286 4.667-6.646 6.384-10.08 1.717-3.435 3.211-7.299 4.48-11.592l1.848.504c-.821 2.874-1.904 5.917-3.248 9.128h14.224v-12.152h2.072v12.152h19.712v1.96h-19.712v13.496h17.752v1.904h-17.752v15.568z" fill="#fff"/><defs><clipPath id="a"><path fill="#fff" transform="translate(5.456 17.273)" d="M0 0h512.071v112.791H0z"/></clipPath></defs></svg>