<svg width="36" height="36" fill="none" xmlns="http://www.w3.org/2000/svg"><path fill-rule="evenodd" clip-rule="evenodd" d="M12.274 12.242a.885.885 0 0 1 1.257 0l9.219 9.276a.898.898 0 0 1 0 1.265.885.885 0 0 1-1.257 0l-9.219-9.276a.898.898 0 0 1 0-1.265z" fill="#fff"/><path fill-rule="evenodd" clip-rule="evenodd" d="M22.75 12.242a.898.898 0 0 1 0 1.265l-9.219 9.276a.885.885 0 0 1-1.257 0 .898.898 0 0 1 0-1.265l9.219-9.276a.885.885 0 0 1 1.257 0z" fill="#fff"/><circle opacity=".1" cx="18" cy="18" r="18" fill="#C4C4C4"/></svg>