<svg width="360" height="844" fill="none" xmlns="http://www.w3.org/2000/svg"><path fill="#BABABA" fill-opacity=".2" d="M0 0h360v844H0z"/><path d="M214.906 377.065C289.825 382.374 346 404.421 346 430.813c0 26.393-56.175 48.44-131.094 53.749m-67.003-107.688C71.583 381.825 14 404.092 14 430.813s57.584 48.989 133.903 53.94" stroke="url(#a)" stroke-width="2"/><path d="M179.949 150.156c-23.252 0-44.262-3.121-59.424-8.141-7.586-2.511-13.653-5.479-17.803-8.727-4.162-3.258-6.256-6.678-6.256-10.099 0-3.42 2.094-6.841 6.256-10.098 4.15-3.248 10.217-6.216 17.803-8.728 15.162-5.019 36.172-8.14 59.424-8.14 23.252 0 44.262 3.121 59.424 8.14 7.586 2.512 13.653 5.48 17.803 8.728 4.162 3.257 6.256 6.678 6.256 10.098 0 3.421-2.094 6.841-6.256 10.099-4.15 3.248-10.217 6.216-17.803 8.727-15.162 5.02-36.172 8.141-59.424 8.141z" stroke="url(#b)" stroke-width="2"/><path d="M182.86 676.86c-24.058 0-45.797-3.187-61.488-8.312-7.85-2.565-14.131-5.597-18.429-8.916-4.31-3.329-6.479-6.826-6.479-10.321 0-3.496 2.168-6.992 6.479-10.321 4.298-3.319 10.579-6.351 18.429-8.916 15.691-5.126 37.43-8.313 61.488-8.313s45.797 3.187 61.488 8.313c7.85 2.565 14.131 5.597 18.429 8.916 4.311 3.329 6.479 6.825 6.479 10.321 0 3.495-2.168 6.992-6.479 10.321-4.298 3.319-10.579 6.351-18.429 8.916-15.691 5.125-37.43 8.312-61.488 8.312z" stroke="url(#c)" stroke-width="2"/><path d="M214.897 321.777c53.021-5.085 91.734-21.095 91.734-40.059 0-23.055-57.221-41.744-127.805-41.744-70.585 0-127.806 18.689-127.806 41.744 0 19.572 41.234 35.997 96.874 40.514M143.545 543.552C121.689 547.776 107 555.632 107 564.626 107 578.087 139.907 589 180.5 589s73.5-10.913 73.5-24.374c0-9.402-16.051-17.56-39.56-21.626" stroke="#4C83FF" stroke-width="2"/><path d="M182.046 732.78c-10.627 0-20.208-1.424-27.097-3.698-3.449-1.139-6.169-2.473-8.005-3.907-1.849-1.443-2.662-2.868-2.662-4.193 0-1.325.813-2.75 2.662-4.193 1.836-1.433 4.556-2.768 8.005-3.907 6.889-2.274 16.47-3.698 27.097-3.698 10.628 0 20.208 1.424 27.097 3.698 3.45 1.139 6.17 2.474 8.006 3.907 1.849 1.443 2.662 2.868 2.662 4.193 0 1.325-.813 2.75-2.662 4.193-1.836 1.434-4.556 2.768-8.006 3.907-6.889 2.274-16.469 3.698-27.097 3.698z" stroke="url(#d)" stroke-width="2"/><path d="M179.878 215.968c-14.101 0-26.825-1.889-35.991-4.915-4.587-1.514-8.228-3.296-10.701-5.226-2.485-1.94-3.65-3.911-3.65-5.81 0-1.898 1.165-3.87 3.65-5.809 2.473-1.93 6.114-3.712 10.701-5.227 9.166-3.026 21.89-4.914 35.991-4.914 14.101 0 26.826 1.888 35.991 4.914 4.588 1.515 8.229 3.297 10.702 5.227 2.485 1.939 3.65 3.911 3.65 5.809 0 1.899-1.165 3.87-3.65 5.81-2.473 1.93-6.114 3.712-10.702 5.226-9.165 3.026-21.89 4.915-35.991 4.915z" stroke="url(#e)" stroke-width="2"/><defs><linearGradient id="a" x1="346" y1="430.811" x2="26.703" y2="299.454" gradientUnits="userSpaceOnUse"><stop stop-color="#4C83FF"/><stop offset="1" stop-color="#C64CFF"/></linearGradient><linearGradient id="b" x1="264.432" y1="123.189" x2="101.944" y2="56.325" gradientUnits="userSpaceOnUse"><stop stop-color="#4C83FF"/><stop offset="1" stop-color="#C64CFF"/></linearGradient><linearGradient id="c" x1="270.256" y1="649.311" x2="102.818" y2="579.488" gradientUnits="userSpaceOnUse"><stop stop-color="#4C83FF"/><stop offset="1" stop-color="#C64CFF"/></linearGradient><linearGradient id="d" x1="220.811" y1="720.982" x2="146.313" y2="690.243" gradientUnits="userSpaceOnUse"><stop stop-color="#4C83FF"/><stop offset="1" stop-color="#C64CFF"/></linearGradient><linearGradient id="e" x1="231.221" y1="200.017" x2="132.55" y2="159.304" gradientUnits="userSpaceOnUse"><stop stop-color="#4C83FF"/><stop offset="1" stop-color="#C64CFF"/></linearGradient></defs></svg>