<svg width="710" height="180" fill="none" xmlns="http://www.w3.org/2000/svg"><g clip-path="url(#a)"><path fill="#DBDBDB" fill-opacity=".2" d="M0 0h710v180H0z"/><path d="M325.865 61.5C330.421-2.793 349.341-51 371.99-51s41.569 48.207 46.125 112.5M325.701 119c4.249 65.494 23.358 114.911 46.289 114.911S414.03 184.494 418.279 119" stroke="url(#b)" stroke-width="1.5"/><path d="M131.25 91.5c0 19.963-2.68 38.004-6.991 51.03-2.158 6.516-4.71 11.736-7.508 15.31-2.805 3.584-5.768 5.41-8.751 5.41-2.983 0-5.946-1.826-8.751-5.41-2.798-3.574-5.35-8.794-7.508-15.31-4.311-13.026-6.991-31.067-6.991-51.03s2.68-38.004 6.991-51.03c2.158-6.516 4.71-11.736 7.508-15.31 2.805-3.584 5.768-5.41 8.751-5.41 2.983 0 5.946 1.826 8.751 5.41 2.798 3.574 5.35 8.794 7.508 15.31 4.311 13.026 6.991 31.067 6.991 51.03z" stroke="url(#c)" stroke-width="1.5"/><path d="M583.25 89c0 20.654-2.736 39.321-7.139 52.8-2.203 6.744-4.809 12.146-7.668 15.848-2.867 3.711-5.895 5.602-8.943 5.602s-6.076-1.891-8.943-5.602c-2.859-3.702-5.465-9.104-7.668-15.848-4.403-13.479-7.139-32.146-7.139-52.8 0-20.654 2.736-39.322 7.139-52.8 2.203-6.744 4.809-12.146 7.668-15.848 2.867-3.711 5.895-5.602 8.943-5.602s6.076 1.89 8.943 5.602c2.859 3.702 5.465 9.104 7.668 15.848 4.403 13.478 7.139 32.146 7.139 52.8z" stroke="url(#d)" stroke-width="1.5"/><path d="M278.42 61.5c-4.364-45.5-18.104-78.723-34.377-78.723-19.785 0-35.824 49.105-35.824 109.678 0 60.574 16.039 109.678 35.824 109.678 16.795 0 30.891-35.385 34.767-83.133M503.25 91.5c0 16.649-2.232 31.691-5.82 42.545-1.795 5.43-3.917 9.771-6.236 12.739-2.327 2.976-4.764 4.466-7.194 4.466-2.43 0-4.867-1.49-7.194-4.466-2.319-2.968-4.441-7.309-6.236-12.739-3.588-10.854-5.82-25.896-5.82-42.545s2.232-31.69 5.82-42.545c1.795-5.43 3.917-9.771 6.236-12.739 2.327-2.977 4.764-4.466 7.194-4.466 2.43 0 4.867 1.49 7.194 4.466 2.319 2.968 4.441 7.309 6.236 12.74 3.588 10.853 5.82 25.895 5.82 42.544z" stroke="#4C83FF" stroke-width="1.5"/><path d="M631.239 89.704c0 9.128-1.223 17.362-3.179 23.287-.98 2.967-2.13 5.314-3.37 6.903-1.248 1.599-2.499 2.326-3.684 2.326s-2.436-.727-3.684-2.326c-1.24-1.589-2.39-3.936-3.37-6.903-1.956-5.925-3.179-14.159-3.179-23.287 0-9.129 1.223-17.362 3.179-23.288.98-2.967 2.13-5.313 3.37-6.903 1.248-1.599 2.499-2.325 3.684-2.325s2.436.726 3.684 2.325c1.24 1.59 2.39 3.936 3.37 6.903 1.956 5.925 3.179 14.159 3.179 23.288z" stroke="url(#e)" stroke-width="1.5"/><path d="M187.725 91.56c0 12.109-1.621 23.041-4.223 30.92-1.301 3.944-2.835 7.081-4.502 9.216-1.674 2.145-3.394 3.174-5.071 3.174-1.677 0-3.397-1.029-5.071-3.174-1.667-2.135-3.201-5.272-4.503-9.216-2.601-7.879-4.222-18.811-4.222-30.92 0-12.11 1.621-23.041 4.222-30.92 1.302-3.943 2.836-7.08 4.503-9.216 1.674-2.145 3.394-3.174 5.071-3.174 1.677 0 3.397 1.029 5.071 3.174 1.667 2.136 3.201 5.273 4.502 9.216 2.602 7.879 4.223 18.81 4.223 30.92z" stroke="url(#f)" stroke-width="1.5"/><path d="M325.865 61.5C330.421-2.793 349.341-51 371.99-51s41.569 48.207 46.125 112.5M325.701 119c4.249 65.494 23.358 114.911 46.289 114.911S414.03 184.494 418.279 119" stroke="url(#g)" stroke-width="1.5"/><path d="M131.25 91.5c0 19.963-2.68 38.004-6.991 51.03-2.158 6.516-4.71 11.736-7.508 15.31-2.805 3.584-5.768 5.41-8.751 5.41-2.983 0-5.946-1.826-8.751-5.41-2.798-3.574-5.35-8.794-7.508-15.31-4.311-13.026-6.991-31.067-6.991-51.03s2.68-38.004 6.991-51.03c2.158-6.516 4.71-11.736 7.508-15.31 2.805-3.584 5.768-5.41 8.751-5.41 2.983 0 5.946 1.826 8.751 5.41 2.798 3.574 5.35 8.794 7.508 15.31 4.311 13.026 6.991 31.067 6.991 51.03z" stroke="url(#h)" stroke-width="1.5"/><path d="M583.25 89c0 20.654-2.736 39.321-7.139 52.8-2.203 6.744-4.809 12.146-7.668 15.848-2.867 3.711-5.895 5.602-8.943 5.602s-6.076-1.891-8.943-5.602c-2.859-3.702-5.465-9.104-7.668-15.848-4.403-13.479-7.139-32.146-7.139-52.8 0-20.654 2.736-39.322 7.139-52.8 2.203-6.744 4.809-12.146 7.668-15.848 2.867-3.711 5.895-5.602 8.943-5.602s6.076 1.89 8.943 5.602c2.859 3.702 5.465 9.104 7.668 15.848 4.403 13.478 7.139 32.146 7.139 52.8z" stroke="url(#i)" stroke-width="1.5"/><path d="M278.42 61.5c-4.364-45.5-18.104-78.723-34.377-78.723-19.785 0-35.824 49.105-35.824 109.678 0 60.574 16.039 109.678 35.824 109.678 16.795 0 30.891-35.385 34.767-83.133M503.25 91.5c0 16.649-2.232 31.691-5.82 42.545-1.795 5.43-3.917 9.771-6.236 12.739-2.327 2.976-4.764 4.466-7.194 4.466-2.43 0-4.867-1.49-7.194-4.466-2.319-2.968-4.441-7.309-6.236-12.739-3.588-10.854-5.82-25.896-5.82-42.545s2.232-31.69 5.82-42.545c1.795-5.43 3.917-9.771 6.236-12.739 2.327-2.977 4.764-4.466 7.194-4.466 2.43 0 4.867 1.49 7.194 4.466 2.319 2.968 4.441 7.309 6.236 12.74 3.588 10.853 5.82 25.895 5.82 42.544z" stroke="#4C83FF" stroke-width="1.5"/><path d="M631.239 89.704c0 9.128-1.223 17.362-3.179 23.287-.98 2.967-2.13 5.314-3.37 6.903-1.248 1.599-2.499 2.326-3.684 2.326s-2.436-.727-3.684-2.326c-1.24-1.589-2.39-3.936-3.37-6.903-1.956-5.925-3.179-14.159-3.179-23.287 0-9.129 1.223-17.362 3.179-23.288.98-2.967 2.13-5.313 3.37-6.903 1.248-1.599 2.499-2.325 3.684-2.325s2.436.726 3.684 2.325c1.24 1.59 2.39 3.936 3.37 6.903 1.956 5.925 3.179 14.159 3.179 23.288z" stroke="url(#j)" stroke-width="1.5"/><path d="M187.725 91.56c0 12.109-1.621 23.041-4.223 30.92-1.301 3.944-2.835 7.081-4.502 9.216-1.674 2.145-3.394 3.174-5.071 3.174-1.677 0-3.397-1.029-5.071-3.174-1.667-2.135-3.201-5.272-4.503-9.216-2.601-7.879-4.222-18.811-4.222-30.92 0-12.11 1.621-23.041 4.222-30.92 1.302-3.943 2.836-7.08 4.503-9.216 1.674-2.145 3.394-3.174 5.071-3.174 1.677 0 3.397 1.029 5.071 3.174 1.667 2.136 3.201 5.273 4.502 9.216 2.602 7.879 4.223 18.81 4.223 30.92z" stroke="url(#k)" stroke-width="1.5"/></g><defs><linearGradient id="b" x1="371.988" y1="-51" x2="259.262" y2="223.009" gradientUnits="userSpaceOnUse"><stop stop-color="#4C83FF"/><stop offset="1" stop-color="#C64CFF"/></linearGradient><linearGradient id="c" x1="108" y1="19" x2="50.62" y2="158.441" gradientUnits="userSpaceOnUse"><stop stop-color="#4C83FF"/><stop offset="1" stop-color="#C64CFF"/></linearGradient><linearGradient id="d" x1="559.5" y1="14" x2="499.581" y2="157.689" gradientUnits="userSpaceOnUse"><stop stop-color="#4C83FF"/><stop offset="1" stop-color="#C64CFF"/></linearGradient><linearGradient id="e" x1="621.006" y1="56.438" x2="594.627" y2="120.369" gradientUnits="userSpaceOnUse"><stop stop-color="#4C83FF"/><stop offset="1" stop-color="#C64CFF"/></linearGradient><linearGradient id="f" x1="173.929" y1="47.5" x2="138.991" y2="132.176" gradientUnits="userSpaceOnUse"><stop stop-color="#4C83FF"/><stop offset="1" stop-color="#C64CFF"/></linearGradient><linearGradient id="g" x1="371.988" y1="-51" x2="259.262" y2="223.009" gradientUnits="userSpaceOnUse"><stop stop-color="#4C83FF"/><stop offset="1" stop-color="#C64CFF"/></linearGradient><linearGradient id="h" x1="108" y1="19" x2="50.62" y2="158.441" gradientUnits="userSpaceOnUse"><stop stop-color="#4C83FF"/><stop offset="1" stop-color="#C64CFF"/></linearGradient><linearGradient id="i" x1="559.5" y1="14" x2="499.581" y2="157.689" gradientUnits="userSpaceOnUse"><stop stop-color="#4C83FF"/><stop offset="1" stop-color="#C64CFF"/></linearGradient><linearGradient id="j" x1="621.006" y1="56.438" x2="594.627" y2="120.369" gradientUnits="userSpaceOnUse"><stop stop-color="#4C83FF"/><stop offset="1" stop-color="#C64CFF"/></linearGradient><linearGradient id="k" x1="173.929" y1="47.5" x2="138.991" y2="132.176" gradientUnits="userSpaceOnUse"><stop stop-color="#4C83FF"/><stop offset="1" stop-color="#C64CFF"/></linearGradient><clipPath id="a"><path fill="#fff" d="M0 0h710v180H0z"/></clipPath></defs></svg>