<svg width="225" height="182" fill="none" xmlns="http://www.w3.org/2000/svg"><path d="M47.687 146.148c-7.118 0-13.506-1.505-19.164-4.517-5.659-3.103-10.085-7.392-13.279-12.867-3.103-5.476-4.654-11.682-4.654-18.617 0-6.389 1.004-12.549 3.012-18.48 2.007-5.932 5.612-13.37 10.814-22.313L43.17 37.048H64.66L39.884 77.704l.41.41c3.56-2.19 7.758-3.285 12.595-3.285 5.932 0 11.361 1.46 16.29 4.38 4.927 2.921 8.806 7.028 11.635 12.32 2.92 5.294 4.38 11.317 4.38 18.07 0 7.118-1.597 13.461-4.79 19.028-3.195 5.566-7.666 9.901-13.416 13.004-5.658 3.012-12.092 4.517-19.301 4.517zm.41-16.426c5.385 0 9.811-1.825 13.279-5.476 3.559-3.65 5.339-8.35 5.339-14.099 0-5.567-1.689-10.085-5.065-13.552-3.377-3.56-7.712-5.339-13.005-5.339-5.658 0-10.312 1.78-13.963 5.339-3.65 3.467-5.475 7.985-5.475 13.552 0 5.749 1.734 10.449 5.202 14.099 3.559 3.651 8.122 5.476 13.689 5.476zm88.389 16.426c-12.046 0-21.354-4.791-27.925-14.373-6.571-9.582-9.856-23.271-9.856-41.067 0-17.795 3.285-31.484 9.856-41.066 6.571-9.674 15.879-14.51 27.925-14.51 12.046 0 21.355 4.836 27.926 14.51 6.57 9.582 9.856 23.27 9.856 41.066 0 17.796-3.286 31.485-9.856 41.067-6.571 9.582-15.88 14.373-27.926 14.373zm0-16.837c6.115 0 10.86-3.331 14.237-9.993 3.376-6.753 5.065-16.29 5.065-28.61 0-12.41-1.689-21.948-5.065-28.61-3.377-6.753-8.122-10.13-14.237-10.13-6.114 0-10.86 3.377-14.236 10.13-3.377 6.662-5.065 16.2-5.065 28.61 0 12.32 1.688 21.857 5.065 28.61 3.376 6.662 8.122 9.993 14.236 9.993z" fill="url(#a)"/><path d="M47.687 146.148c-7.118 0-13.506-1.505-19.164-4.517-5.659-3.103-10.085-7.392-13.279-12.867-3.103-5.476-4.654-11.682-4.654-18.617 0-6.389 1.004-12.549 3.012-18.48 2.007-5.932 5.612-13.37 10.814-22.313L43.17 37.048H64.66L39.884 77.704l.41.41c3.56-2.19 7.758-3.285 12.595-3.285 5.932 0 11.361 1.46 16.29 4.38 4.927 2.921 8.806 7.028 11.635 12.32 2.92 5.294 4.38 11.317 4.38 18.07 0 7.118-1.597 13.461-4.79 19.028-3.195 5.566-7.666 9.901-13.416 13.004-5.658 3.012-12.092 4.517-19.301 4.517zm.41-16.426c5.385 0 9.811-1.825 13.279-5.476 3.559-3.65 5.339-8.35 5.339-14.099 0-5.567-1.689-10.085-5.065-13.552-3.377-3.56-7.712-5.339-13.005-5.339-5.658 0-10.312 1.78-13.963 5.339-3.65 3.467-5.475 7.985-5.475 13.552 0 5.749 1.734 10.449 5.202 14.099 3.559 3.651 8.122 5.476 13.689 5.476zm88.389 16.426c-12.046 0-21.354-4.791-27.925-14.373-6.571-9.582-9.856-23.271-9.856-41.067 0-17.795 3.285-31.484 9.856-41.066 6.571-9.674 15.879-14.51 27.925-14.51 12.046 0 21.355 4.836 27.926 14.51 6.57 9.582 9.856 23.27 9.856 41.066 0 17.796-3.286 31.485-9.856 41.067-6.571 9.582-15.88 14.373-27.926 14.373zm0-16.837c6.115 0 10.86-3.331 14.237-9.993 3.376-6.753 5.065-16.29 5.065-28.61 0-12.41-1.689-21.948-5.065-28.61-3.377-6.753-8.122-10.13-14.237-10.13-6.114 0-10.86 3.377-14.236 10.13-3.377 6.662-5.065 16.2-5.065 28.61 0 12.32 1.688 21.857 5.065 28.61 3.376 6.662 8.122 9.993 14.236 9.993z" fill="url(#b)"/><path d="m206.093 30.003 18.191 18.711h-36.383l18.192-18.711z" fill="#7CFAA3"/><path transform="rotate(180 213.89 77.82)" fill="url(#c)" d="M213.89 77.82h15.593v32.225H213.89z"/><path d="M195.934 127.186c-1.528 0-2.894-.324-4.098-.97a7.321 7.321 0 0 1-2.821-2.776c-.675-1.175-1.013-2.512-1.013-4.01 0-1.528.338-2.879 1.013-4.054a7.232 7.232 0 0 1 2.821-2.821c1.204-.675 2.57-1.013 4.098-1.013 1.498 0 2.835.338 4.01 1.013a6.936 6.936 0 0 1 2.776 2.821c.676 1.175 1.014 2.526 1.014 4.054 0 1.498-.338 2.835-1.014 4.01-.646 1.175-1.572 2.1-2.776 2.776-1.175.646-2.512.97-4.01.97zm.661 18.42h-5.156l24.105-34.064h5.156l-24.105 34.064zm-.661-21.946c1.175 0 2.144-.396 2.908-1.19.764-.793 1.146-1.806 1.146-3.04 0-1.263-.382-2.292-1.146-3.085-.764-.793-1.733-1.19-2.908-1.19-1.205 0-2.203.397-2.997 1.19-.763.793-1.145 1.822-1.145 3.085 0 1.234.382 2.247 1.145 3.04.794.794 1.792 1.19 2.997 1.19zm20.315 21.946c-1.528 0-2.894-.324-4.098-.97a7.408 7.408 0 0 1-2.777-2.776c-.675-1.205-1.013-2.556-1.013-4.054 0-1.499.338-2.835 1.013-4.01a7.317 7.317 0 0 1 2.777-2.821c1.204-.675 2.57-1.013 4.098-1.013 1.498 0 2.849.338 4.054 1.013a7.23 7.23 0 0 1 2.82 2.821c.676 1.175 1.014 2.511 1.014 4.01 0 1.498-.338 2.849-1.014 4.054a7.318 7.318 0 0 1-2.82 2.776c-1.205.646-2.556.97-4.054.97zm0-3.57c1.204 0 2.188-.382 2.952-1.146.793-.793 1.19-1.821 1.19-3.084 0-1.264-.397-2.277-1.19-3.041-.764-.793-1.748-1.19-2.952-1.19-1.205 0-2.189.397-2.953 1.19-.764.764-1.145 1.777-1.145 3.041 0 1.263.381 2.291 1.145 3.084.764.764 1.748 1.146 2.953 1.146z" fill="url(#d)"/><defs><linearGradient id="a" x1="93.156" y1="38.815" x2="93.156" y2="151.81" gradientUnits="userSpaceOnUse"><stop stop-color="#34E6F1"/><stop offset="1" stop-color="#0D84FF"/></linearGradient><linearGradient id="b" x1="93.156" y1="38.815" x2="93.156" y2="151.81" gradientUnits="userSpaceOnUse"><stop stop-color="#7CFAA3"/><stop offset="1" stop-color="#32DDAA"/></linearGradient><linearGradient id="c" x1="221.686" y1="77.82" x2="221.686" y2="107.897" gradientUnits="userSpaceOnUse"><stop offset=".028" stop-color="#7CFAA3" stop-opacity="0"/><stop offset="1" stop-color="#7CFAA3"/></linearGradient><linearGradient id="d" x1="210.141" y1="148.966" x2="206.455" y2="111.535" gradientUnits="userSpaceOnUse"><stop stop-color="#32DDAA"/><stop offset="1" stop-color="#77EA7B"/></linearGradient></defs></svg>