<svg width="16" height="25" fill="none" xmlns="http://www.w3.org/2000/svg"><g opacity=".6"><path fill-rule="evenodd" clip-rule="evenodd" d="m10.11.777-.063-.095-.077.083a5.482 5.482 0 0 0-.59 6.749l.061.094.078-.082a5.483 5.483 0 0 0 .59-6.749zM14.333 9.249l.004-.113-.111.023a5.482 5.482 0 0 0-4.355 5.19l-.003.112.11-.023a5.482 5.482 0 0 0 4.355-5.19zM13.071 18.368l.052-.1-.11-.027a5.482 5.482 0 0 0-6.14 2.863l-.052.101.11.026a5.483 5.483 0 0 0 6.14-2.863z" fill="#fff"/><path fill-rule="evenodd" clip-rule="evenodd" d="m2.924 1.01-.113.007.033.108a5.482 5.482 0 0 0 5.549 3.886l.113-.006-.033-.109a5.482 5.482 0 0 0-5.549-3.885zM4.01 7.292l-.113.009.035.107a5.482 5.482 0 0 0 5.616 3.789l.113-.009-.034-.108A5.482 5.482 0 0 0 4.01 7.292zM5.52 12.225l-.104-.043-.017.112a5.482 5.482 0 0 0 3.388 5.867l.105.042.016-.112a5.482 5.482 0 0 0-3.387-5.867z" fill="#fff"/><path d="M8.18 4.732c3.459 8.72 1.83 15.143-4.888 19.268" stroke="#fff" stroke-width=".497" stroke-linecap="round" stroke-linejoin="round"/></g></svg>