<svg width="16" height="25" fill="none" xmlns="http://www.w3.org/2000/svg"><g opacity=".6"><path fill-rule="evenodd" clip-rule="evenodd" d="M5.178.777 5.24.682l.078.083a5.482 5.482 0 0 1 .59 6.749l-.062.094-.077-.082a5.482 5.482 0 0 1-.59-6.749zM.955 9.249.95 9.136l.111.023a5.482 5.482 0 0 1 4.354 5.19l.004.112-.11-.023a5.483 5.483 0 0 1-4.355-5.19zM2.217 18.368l-.052-.1.11-.027a5.482 5.482 0 0 1 6.14 2.863l.052.101-.11.026a5.483 5.483 0 0 1-6.14-2.863z" fill="#fff"/><path fill-rule="evenodd" clip-rule="evenodd" d="m12.364 1.01.113.007-.033.108a5.483 5.483 0 0 1-5.549 3.886l-.113-.006.033-.109a5.482 5.482 0 0 1 5.549-3.885zM11.277 7.292l.114.009-.035.107a5.482 5.482 0 0 1-5.616 3.789l-.113-.009.034-.108a5.482 5.482 0 0 1 5.617-3.788zM9.767 12.225l.105-.043.016.112a5.482 5.482 0 0 1-3.387 5.867l-.105.042-.016-.112a5.482 5.482 0 0 1 3.387-5.867z" fill="#fff"/><path d="M7.108 4.732C3.65 13.452 5.278 19.875 11.996 24" stroke="#fff" stroke-width=".497" stroke-linecap="round" stroke-linejoin="round"/></g></svg>