<svg width="710" height="180" fill="none" xmlns="http://www.w3.org/2000/svg"><g clip-path="url(#a)"><path fill="#DBDBDB" fill-opacity=".2" d="M0 0h710v180H0z"/><circle cx="40.791" cy="62.322" r="61.572" stroke="url(#b)" stroke-width="1.5"/><circle cx="149.197" cy="44.328" r="43.578" stroke="url(#c)" stroke-width="1.5"/><circle cx="125.057" cy="124.645" r="32.606" stroke="url(#d)" stroke-width="1.5"/><circle cx="556.924" cy="39.5" r="38.75" stroke="url(#e)" stroke-width="1.5"/><circle cx="671.914" cy="74.611" r="73.861" stroke="url(#f)" stroke-width="1.5"/><circle cx="567.457" cy="106.211" r="22.072" stroke="url(#g)" stroke-width="1.5"/><circle cx="212" cy="21" r="12.25" stroke="#4C83FF" stroke-width="1.5"/><circle cx="606.519" cy="16.239" r="8.467" stroke="url(#h)" stroke-width="1.5"/></g><defs><linearGradient id="b" x1="40.791" y1="0" x2="40.791" y2="124.644" gradientUnits="userSpaceOnUse"><stop stop-color="#4C83FF"/><stop offset="1" stop-color="#8FAEF6"/></linearGradient><linearGradient id="c" x1="149.197" y1="0" x2="149.197" y2="88.656" gradientUnits="userSpaceOnUse"><stop stop-color="#0AB6EC"/><stop offset="1" stop-color="#86D2EB"/></linearGradient><linearGradient id="d" x1="125.057" y1="91.289" x2="125.057" y2="158" gradientUnits="userSpaceOnUse"><stop stop-color="#FF6984"/><stop offset="1" stop-color="#F3A7B7"/></linearGradient><linearGradient id="e" x1="556.924" y1="0" x2="556.924" y2="79" gradientUnits="userSpaceOnUse"><stop stop-color="#FF6984"/><stop offset="1" stop-color="#F3A7B7"/></linearGradient><linearGradient id="f" x1="671.914" y1="0" x2="671.914" y2="149.222" gradientUnits="userSpaceOnUse"><stop stop-color="#0AB6EC"/><stop offset="1" stop-color="#86D2EB"/></linearGradient><linearGradient id="g" x1="567.457" y1="83.389" x2="567.457" y2="129.033" gradientUnits="userSpaceOnUse"><stop stop-color="#4C83FF"/><stop offset="1" stop-color="#8FAEF6"/></linearGradient><linearGradient id="h" x1="606.519" y1="7.022" x2="606.519" y2="25.456" gradientUnits="userSpaceOnUse"><stop stop-color="#4C83FF"/><stop offset="1" stop-color="#8FAEF6"/></linearGradient><clipPath id="a"><path fill="#fff" d="M0 0h710v180H0z"/></clipPath></defs></svg>