<svg width="360" height="844" fill="none" xmlns="http://www.w3.org/2000/svg"><g clip-path="url(#a)"><path fill="#BABABA" fill-opacity=".2" d="M0 0h360v844H0z"/><circle cx="-18.302" cy="73.362" r="71.698" stroke="url(#b)" stroke-width="2"/><circle cx="98.195" cy="45.313" r="43.649" stroke="url(#c)" stroke-width="2"/><circle cx="78.247" cy="125.997" r="32.513" stroke="url(#d)" stroke-width="2"/><circle cx="204.413" cy="60.546" r="58.882" stroke="url(#e)" stroke-width="2"/><circle cx="352.12" cy="105.303" r="89.768" stroke="url(#f)" stroke-width="2"/><circle cx="276" cy="27" r="13" stroke="#4C83FF" stroke-width="2"/><circle cx="296" cy="11" r="7" stroke="#4C83FF" stroke-width="2"/><circle cx="300.711" cy="269.711" r="38.711" stroke="url(#g)" stroke-width="2"/><circle cx="18.5" cy="393.5" r="45.5" stroke="url(#h)" stroke-width="2"/><circle cx="336.902" cy="331.902" r="21.902" stroke="url(#i)" stroke-width="2"/></g><defs><linearGradient id="b" x1="-18.302" y1=".664" x2="-18.302" y2="146.061" gradientUnits="userSpaceOnUse"><stop stop-color="#4C83FF"/><stop offset="1" stop-color="#8FAEF6"/></linearGradient><linearGradient id="c" x1="98.195" y1=".664" x2="98.195" y2="89.961" gradientUnits="userSpaceOnUse"><stop stop-color="#4C83FF"/><stop offset="1" stop-color="#8FAEF6"/></linearGradient><linearGradient id="d" x1="78.247" y1="92.484" x2="78.247" y2="159.51" gradientUnits="userSpaceOnUse"><stop stop-color="#FF6984"/><stop offset="1" stop-color="#F3A7B7"/></linearGradient><linearGradient id="e" x1="204.413" y1=".664" x2="204.413" y2="120.427" gradientUnits="userSpaceOnUse"><stop stop-color="#0AB6EC"/><stop offset="1" stop-color="#86D2EB"/></linearGradient><linearGradient id="f" x1="352.119" y1="14.535" x2="352.119" y2="196.071" gradientUnits="userSpaceOnUse"><stop stop-color="#4C83FF"/><stop offset="1" stop-color="#8FAEF6"/></linearGradient><linearGradient id="g" x1="300.711" y1="230" x2="300.711" y2="309.422" gradientUnits="userSpaceOnUse"><stop stop-color="#FF6984"/><stop offset="1" stop-color="#F3A7B7"/></linearGradient><linearGradient id="h" x1="18.5" y1="347" x2="18.5" y2="440" gradientUnits="userSpaceOnUse"><stop stop-color="#0AB6EC"/><stop offset="1" stop-color="#86D2EB"/></linearGradient><linearGradient id="i" x1="336.902" y1="309" x2="336.902" y2="354.804" gradientUnits="userSpaceOnUse"><stop stop-color="#4C83FF"/><stop offset="1" stop-color="#8FAEF6"/></linearGradient><clipPath id="a"><path fill="#fff" d="M0 0h360v844H0z"/></clipPath></defs></svg>