<svg width="210" height="321" fill="none" xmlns="http://www.w3.org/2000/svg"><rect y=".049" width="210" height="320" rx="24" fill="url(#a)"/><rect x="16" y="16.049" width="178" height="170" rx="14" fill="url(#b)"/><path d="M47.04 32.521v1.184h-1.984v9.92c0 .608-.07 1.067-.208 1.376-.128.31-.363.523-.704.64-.33.128-.832.192-1.504.192h-2.128l-.224-1.232h2.08c.427 0 .736-.032.928-.096a.63.63 0 0 0 .4-.352c.075-.181.112-.47.112-.864v-9.584H32.96v-1.184h14.08zM34.608 36.09h6.464v6.336h-6.464V36.09zm1.168 5.184h4.096v-4.016h-4.096v4.016zm14.64-8.816H62.08v11.664c0 .693-.15 1.168-.448 1.424-.288.256-.805.384-1.552.384h-1.632l-.192-1.232h1.456c.33 0 .57-.021.72-.064a.483.483 0 0 0 .32-.288c.053-.139.08-.352.08-.64v-2.224h-4.016v4.352h-1.232v-4.352h-4.016c-.075.928-.23 1.75-.464 2.464-.224.704-.576 1.461-1.056 2.272l-1.136-.592c.448-.736.773-1.37.976-1.904a7.648 7.648 0 0 0 .416-1.84c.075-.693.112-1.67.112-2.928v-6.496zm5.168 3.984v-2.784h-3.936v2.784h3.936zm1.232 0h4.016v-2.784h-4.016v2.784zm-1.232 3.84v-2.64h-3.936v1.744c0 .405-.005.704-.016.896h3.952zm1.232-2.64v2.64h4.016v-2.64h-4.016zm21.136-3.632v9.904c0 .533-.059.933-.176 1.2a.963.963 0 0 1-.624.56c-.299.107-.736.16-1.312.16h-2.016l-.24-1.216h1.888c.384 0 .661-.027.832-.08.181-.053.299-.155.352-.304.064-.15.096-.39.096-.72v-8.288h-4.144c-.021.81-.107 1.541-.256 2.192.704.683 2.016 2.016 3.936 4l-.848.96a190.223 190.223 0 0 0-3.536-3.712 8.511 8.511 0 0 1-1.296 2c-.555.64-1.27 1.307-2.144 2l-.8-1.04c.96-.747 1.707-1.44 2.24-2.08.533-.64.912-1.296 1.136-1.968.224-.672.347-1.456.368-2.352h-4.144v10.768h-1.216V34.01h5.36v-2.448h1.2v2.448h5.344zm17.088-.8v1.152h-8.608a21.875 21.875 0 0 1-1.952 3.456v8.288h-1.184v-6.784a25.7 25.7 0 0 1-1.904 1.984l-.56-1.232a18.754 18.754 0 0 0 4.176-5.712H81.12V33.21h4.384c.224-.544.437-1.141.64-1.792l1.312.16c-.213.693-.4 1.237-.56 1.632h8.144zm-4.032 6.48v.496h4.032v1.104h-4.032v2.832c0 .47-.059.832-.176 1.088-.117.256-.325.437-.624.544-.288.117-.71.176-1.264.176h-1.792l-.24-1.136h1.632c.352 0 .613-.027.784-.08.181-.053.304-.144.368-.272.064-.139.096-.341.096-.608V41.29h-4.496v-1.104h4.496v-1.024l2.48-1.744h-5.856v-1.104h7.76v1.104l-3.168 2.272z" fill="#fff"/><rect x="16" y="201.049" width="178" height="103" rx="14" fill="url(#c)"/><path d="M40.88 225.841v3.328c0 .448-.064.789-.192 1.024-.117.235-.32.4-.608.496-.288.096-.699.144-1.232.144h-1.632l-.256-1.168h1.472c.47 0 .784-.053.944-.16.16-.117.24-.341.24-.672v-2.928l-5.344.256-.272-1.072a39.276 39.276 0 0 0 5.424-2.88l-4.816.368-.272-.912c1.483-.8 2.87-1.744 4.16-2.832-2.07.107-3.6.176-4.592.208l-.128-1.216c1.621-.032 3.68-.123 6.176-.272 2.507-.149 4.533-.304 6.08-.464l.208 1.2c-1.525.149-3.515.293-5.968.432a38.15 38.15 0 0 1-1.84 1.488c-.661.512-1.259.939-1.792 1.28l4.384-.336a54.78 54.78 0 0 0 2.672-2.032l.96.912c-2.037 1.579-4.71 3.232-8.016 4.96l7.168-.352-1.456-1.472.848-.72c.427.405.976.955 1.648 1.648a60.71 60.71 0 0 1 1.76 1.856l-.848.8-.992-1.088-3.888.176zm1.824.784c.597.373 1.339.859 2.224 1.456.885.587 1.6 1.083 2.144 1.488l-.608 1.056c-.523-.427-1.216-.923-2.08-1.488a55.575 55.575 0 0 0-2.288-1.456l.608-1.056zm-5.104 1.024a25.198 25.198 0 0 1-2.016 1.584 29.53 29.53 0 0 1-2.128 1.376l-.608-1.024c.715-.405 1.43-.859 2.144-1.36a16.285 16.285 0 0 0 1.888-1.536l.72.96zm25.392-.608-.08 2.256c-.021.544-.16.923-.416 1.136-.245.224-.693.336-1.344.336h-.816c-.576 0-.992-.117-1.248-.352-.245-.235-.368-.667-.368-1.296v-5.04l-1.6.096c0 .469-.005.784-.016.944-.043 1.056-.176 1.936-.4 2.64a4.996 4.996 0 0 1-1.04 1.856c-.47.533-1.125 1.061-1.968 1.584l-.736-.992c.8-.459 1.397-.896 1.792-1.312.395-.416.672-.912.832-1.488.17-.587.277-1.387.32-2.4v-.752l-1.68.112-.304-1.072c.49-.469.997-1.04 1.52-1.712a25.284 25.284 0 0 0 1.44-2H54v-1.12h3.792l-.576-1.936 1.184-.208.656 2.144h3.76v1.12h-4.608a38.52 38.52 0 0 1-1.376 1.936 24.023 24.023 0 0 1-1.28 1.616l4.944-.256a66.36 66.36 0 0 0-1.328-1.888l.88-.592c.95 1.291 1.85 2.565 2.704 3.824l-.912.624-.624-.944-1.376.096v4.896c0 .32.048.528.144.624.096.096.288.144.576.144h.448c.352 0 .587-.048.704-.144.117-.107.187-.32.208-.64a37.95 37.95 0 0 0 .048-2.064l1.024.224zm-13.68-4.48-.224-1.104c.864-1.141 1.813-2.827 2.848-5.056l.992.432c-.992 2.037-1.808 3.536-2.448 4.496l1.952-.24c.299-.523.57-1.019.816-1.488l1.024.576c-.832 1.547-1.947 3.285-3.344 5.216l2.752-.416.032 1.12-4.128.624-.24-1.168a32.117 32.117 0 0 0 2.432-3.36l-2.464.368zm-.256 6.224 4.752-.848.08 1.232-4.672.848-.16-1.232zm29.728-9.856v1.216h-6.592v3.008h5.312v7.936h-1.232v-1.072h-8.48v1.072h-1.216v-7.936h4.304v-6.672h1.312v2.448h6.592zm-10.992 9.904h8.48v-4.416h-8.48v4.416zm14.624-11.376H94.08v11.664c0 .693-.15 1.168-.448 1.424-.288.256-.805.384-1.552.384h-1.632l-.192-1.232h1.456c.33 0 .57-.021.72-.064a.481.481 0 0 0 .32-.288c.053-.139.08-.352.08-.64v-2.224h-4.016v4.352h-1.232v-4.352h-4.016c-.075.928-.23 1.749-.464 2.464-.224.704-.576 1.461-1.056 2.272l-1.136-.592c.448-.736.773-1.371.976-1.904a7.644 7.644 0 0 0 .416-1.84c.075-.693.112-1.669.112-2.928v-6.496zm5.168 3.984v-2.784h-3.936v2.784h3.936zm1.232 0h4.016v-2.784h-4.016v2.784zm-1.232 3.84v-2.64h-3.936v1.744c0 .405-.005.704-.016.896h3.952zm1.232-2.64v2.64h4.016v-2.64h-4.016zm21.136-3.632v9.904c0 .533-.059.933-.176 1.2a.962.962 0 0 1-.624.56c-.299.107-.736.16-1.312.16h-2.016l-.24-1.216h1.888c.384 0 .661-.027.832-.08.181-.053.299-.155.352-.304.064-.149.096-.389.096-.72v-8.288h-4.144a11.144 11.144 0 0 1-.256 2.192c.704.683 2.016 2.016 3.936 4l-.848.96a190.513 190.513 0 0 0-3.536-3.712 8.49 8.49 0 0 1-1.296 2c-.555.64-1.269 1.307-2.144 2l-.8-1.04c.96-.747 1.707-1.44 2.24-2.08.533-.64.912-1.296 1.136-1.968.224-.672.347-1.456.368-2.352h-4.144v10.768h-1.216v-11.984h5.36v-2.448h1.2v2.448h5.344zm17.088-.8v1.152h-8.608a21.84 21.84 0 0 1-1.952 3.456v8.288h-1.184v-6.784a25.626 25.626 0 0 1-1.904 1.984l-.56-1.232a18.764 18.764 0 0 0 4.176-5.712h-3.888v-1.152h4.384c.224-.544.437-1.141.64-1.792l1.312.16a20.95 20.95 0 0 1-.56 1.632h8.144zm-4.032 6.48v.496h4.032v1.104h-4.032v2.832c0 .469-.059.832-.176 1.088-.117.256-.325.437-.624.544-.288.117-.709.176-1.264.176h-1.792l-.24-1.136h1.632c.352 0 .613-.027.784-.08.181-.053.304-.144.368-.272.064-.139.096-.341.096-.608v-2.544h-4.496v-1.104h4.496v-1.024l2.48-1.744h-5.856v-1.104h7.76v1.104l-3.168 2.272z" fill="#fff"/><defs><linearGradient id="a" x1="74" y1=".049" x2="145.265" y2="318.198" gradientUnits="userSpaceOnUse"><stop stop-color="#30373E"/><stop offset="1" stop-color="#1E2329"/></linearGradient><linearGradient id="b" x1="84" y1="16.049" x2="201.677" y2="91.841" gradientUnits="userSpaceOnUse"><stop stop-color="#24C75E"/><stop offset="1" stop-color="#42AE4F"/></linearGradient><linearGradient id="c" x1="84" y1="201.049" x2="162.164" y2="284.139" gradientUnits="userSpaceOnUse"><stop stop-color="#489DF8"/><stop offset="1" stop-color="#3B71F7"/></linearGradient></defs></svg>