<svg width="710" height="180" fill="none" xmlns="http://www.w3.org/2000/svg"><g clip-path="url(#a)"><path fill="#DBDBDB" fill-opacity=".2" d="M0 0h710v180H0z"/><circle cx="477" cy="169" r="31.25" stroke="url(#b)" stroke-width="1.5"/><rect x="492.529" y="203.772" width="162.483" height="66.705" rx="33.353" transform="rotate(-45 492.529 203.772)" stroke="url(#c)" stroke-width="1.5"/><rect x="661.797" y="42.27" width="168.968" height="66.591" rx="33.295" stroke="#F8A7AC" stroke-width="1.5"/><rect x="651.406" y="118.602" width="118.821" height="118.821" rx="15.25" stroke="#94B5FF" stroke-width="1.5"/><circle cx="628" cy="73" r="27.25" stroke="url(#d)" stroke-width="1.5"/><rect x="585.422" y="-33.367" width="169.013" height="66.705" rx="33.353" stroke="url(#e)" stroke-width="1.5"/><rect x="517.407" y=".79" width="96.156" height="96.156" rx="15.25" transform="rotate(30 517.407 .79)" stroke="url(#f)" stroke-width="1.5"/></g><defs><linearGradient id="b" x1="477" y1="137" x2="477" y2="201" gradientUnits="userSpaceOnUse"><stop stop-color="#8E85F0"/><stop offset="1" stop-color="#CAC5FF"/></linearGradient><linearGradient id="c" x1="573.46" y1="203.772" x2="573.46" y2="271.977" gradientUnits="userSpaceOnUse"><stop stop-color="#E6A5D1"/><stop offset="1" stop-color="#FFB1E6"/></linearGradient><linearGradient id="d" x1="628" y1="45" x2="628" y2="101" gradientUnits="userSpaceOnUse"><stop stop-color="#34D0FB"/><stop offset="1" stop-color="#78E2FF"/></linearGradient><linearGradient id="e" x1="669.928" y1="-34.117" x2="669.928" y2="34.088" gradientUnits="userSpaceOnUse"><stop stop-color="#B4ADFF"/><stop offset="1" stop-color="#C1BBFF"/></linearGradient><linearGradient id="f" x1="565.961" y1="-.234" x2="565.961" y2="97.421" gradientUnits="userSpaceOnUse"><stop stop-color="#FFC133"/><stop offset="1" stop-color="#FFCF63" stop-opacity=".7"/></linearGradient><clipPath id="a"><path fill="#fff" d="M0 0h710v180H0z"/></clipPath></defs></svg>