<svg width="360" height="844" fill="none" xmlns="http://www.w3.org/2000/svg"><g clip-path="url(#a)"><path fill="#BABABA" fill-opacity=".2" d="M0 0h360v844H0z"/><rect x="-117" y="3" width="416" height="838.75" rx="76.188" stroke="#E2EEFF" stroke-width="2"/><path d="M-21.977 135.01c0-6.667.001-11.608.32-15.518.32-3.898.95-6.685 2.16-9.061a22.753 22.753 0 0 1 9.942-9.942c2.376-1.21 5.162-1.84 9.06-2.159 3.911-.32 8.851-.32 15.518-.32h194.75c11.655 0 20.337 0 27.217.563 6.869.56 11.855 1.677 16.136 3.858a40.56 40.56 0 0 1 17.726 17.726c2.182 4.281 3.297 9.267 3.858 16.136.563 6.88.563 15.562.563 27.217v489.25c0 16.643 0 29.065-.805 38.916-.804 9.839-2.405 17.024-5.557 23.21a58.374 58.374 0 0 1-25.511 25.511c-6.186 3.152-13.372 4.753-23.211 5.557-9.85.805-22.273.806-38.916.806H15.023c-6.667 0-11.607-.001-15.517-.321-3.899-.318-6.685-.948-9.06-2.159a22.748 22.748 0 0 1-9.943-9.942c-1.21-2.376-1.84-5.162-2.16-9.061-.319-3.91-.32-8.85-.32-15.517V135.01z" stroke="#80D9FF" stroke-width="2"/><path d="M-69.492 125.511c0-13.318 0-23.246.644-31.116.642-7.86 1.92-13.578 4.424-18.494a46.5 46.5 0 0 1 20.321-20.322c4.916-2.504 10.636-3.782 18.494-4.424 7.87-.643 17.8-.644 31.117-.644h197.125c14.98 0 26.155.001 35.016.725 8.849.723 15.301 2.162 20.852 4.99a52.434 52.434 0 0 1 22.916 22.917c2.829 5.55 4.268 12.003 4.991 20.852.724 8.861.725 20.036.725 35.016v574.75c0 14.981-.001 26.156-.725 35.016-.723 8.849-2.162 15.302-4.991 20.853a52.431 52.431 0 0 1-22.916 22.916c-5.551 2.828-12.003 4.268-20.852 4.99-8.861.724-20.036.725-35.016.725H5.508c-13.318 0-23.246-.001-31.117-.644-7.858-.642-13.578-1.919-18.494-4.424a46.501 46.501 0 0 1-20.321-20.321c-2.505-4.916-3.782-10.635-4.424-18.494-.643-7.871-.644-17.799-.644-31.117v-593.75z" stroke="#B6E9FF" stroke-width="2"/><path opacity=".8" d="M25.504 172.995c0-5.004 0-8.698.24-11.618.237-2.908.705-4.961 1.592-6.702a16.804 16.804 0 0 1 7.348-7.347c1.74-.887 3.794-1.356 6.702-1.594 2.92-.238 6.613-.239 11.618-.239h144.875c11.655 0 20.336.001 27.217.563 6.868.561 11.855 1.677 16.135 3.858a40.56 40.56 0 0 1 17.727 17.727c2.181 4.281 3.297 9.267 3.858 16.135.562 6.881.563 15.562.563 27.217v422.75c0 11.655-.001 20.336-.563 27.217-.561 6.869-1.677 11.855-3.858 16.136a40.562 40.562 0 0 1-17.727 17.726c-4.28 2.181-9.267 3.297-16.135 3.858-6.881.562-15.562.563-27.217.563H53.004c-5.005 0-8.698-.001-11.618-.239-2.908-.238-4.962-.707-6.702-1.593a16.811 16.811 0 0 1-7.348-7.348c-.887-1.74-1.355-3.794-1.593-6.702-.238-2.92-.24-6.613-.24-11.618v-498.75z" stroke="#1B6BFF" stroke-width="2"/><path opacity=".6" d="M73.002 211.011c0-3.342 0-5.788.158-7.718.157-1.919.464-3.239 1.027-4.344a10.874 10.874 0 0 1 4.753-4.753c1.105-.563 2.426-.87 4.344-1.027 1.93-.157 4.376-.158 7.718-.158h114c8.33 0 14.517.001 19.417.401 4.889.399 8.409 1.191 11.419 2.725a28.688 28.688 0 0 1 12.537 12.537c1.534 3.011 2.326 6.531 2.726 11.419.4 4.901.401 11.088.401 19.418v365.75c0 8.33-.001 14.517-.401 19.417-.4 4.889-1.192 8.408-2.726 11.419a28.683 28.683 0 0 1-12.537 12.537c-3.01 1.534-6.53 2.326-11.419 2.726-4.9.4-11.087.401-19.417.401h-114c-3.342 0-5.788-.001-7.718-.159-1.918-.156-3.239-.463-4.344-1.027l-.454.891.454-.891a10.871 10.871 0 0 1-4.753-4.752c-.563-1.106-.87-2.426-1.027-4.344-.157-1.93-.158-4.376-.158-7.718v-422.75z" stroke="#2000D8" stroke-width="2"/><path opacity=".6" d="M120.51 258.497c0-3.342.001-5.788.158-7.718.157-1.919.464-3.239 1.027-4.345a10.876 10.876 0 0 1 4.753-4.752c1.105-.563 2.425-.87 4.344-1.027 1.93-.158 4.376-.158 7.718-.158h64.125c6.667 0 11.607 0 15.517.32 3.899.318 6.685.949 9.061 2.159a22.75 22.75 0 0 1 9.942 9.942c1.211 2.376 1.841 5.163 2.16 9.061.319 3.91.32 8.85.32 15.518v289.75c0 6.667-.001 11.607-.32 15.517-.319 3.899-.949 6.685-2.16 9.061a22.745 22.745 0 0 1-9.942 9.942c-2.376 1.21-5.162 1.841-9.061 2.159-3.91.32-8.85.321-15.517.321H138.51c-3.342 0-5.788-.001-7.718-.159-1.919-.157-3.239-.463-4.344-1.027l-.454.891.454-.891a10.871 10.871 0 0 1-4.753-4.752c-.563-1.106-.87-2.426-1.027-4.344-.157-1.93-.158-4.377-.158-7.718v-327.75z" stroke="#21008F" stroke-width="2"/></g><defs><clipPath id="a"><path fill="#fff" d="M0 0h360v844H0z"/></clipPath></defs></svg>