<svg width="710" height="180" fill="none" xmlns="http://www.w3.org/2000/svg"><g clip-path="url(#a)"><path fill="#DBDBDB" fill-opacity=".2" d="M0 0h710v180H0z"/><rect x="102.75" y="254.25" width="248.5" height="503.5" rx="48.399" transform="rotate(-90 102.75 254.25)" stroke="#CFE2FF" stroke-width="1.5"/><path d="M159.75 174.803V63.344c0-7.423.001-12.946.358-17.321.357-4.367 1.065-7.525 2.445-10.232a25.711 25.711 0 0 1 11.238-11.238c2.707-1.38 5.865-2.088 10.232-2.445 4.375-.357 9.898-.358 17.321-.358h288.164c10.6 0 18.504 0 24.771.513 6.258.51 10.817 1.528 14.737 3.526a37.058 37.058 0 0 1 16.195 16.195c1.998 3.92 3.015 8.479 3.526 14.737.512 6.267.513 14.171.513 24.77v93.312c0 4.248-.001 7.388-.204 9.872-.202 2.475-.601 4.233-1.363 5.727a14.366 14.366 0 0 1-6.281 6.281c-1.494.762-3.252 1.161-5.727 1.363-2.484.203-5.624.204-9.872.204H183.197c-4.248 0-7.388-.001-9.872-.204-2.475-.202-4.233-.601-5.727-1.363a14.366 14.366 0 0 1-6.281-6.281c-.762-1.494-1.161-3.252-1.363-5.727-.203-2.484-.204-5.624-.204-9.872z" stroke="#80D9FF" stroke-width="1.5"/><path d="M131.75 178.607V67.442c0-9.54.001-16.65.461-22.287.46-5.628 1.374-9.72 3.166-13.236a33.276 33.276 0 0 1 14.542-14.542c3.516-1.792 7.608-2.706 13.236-3.166 5.636-.46 12.747-.461 22.287-.461h339.116c9.54 0 16.651 0 22.287.461 5.628.46 9.72 1.374 13.236 3.166a33.276 33.276 0 0 1 14.542 14.542c1.792 3.516 2.706 7.608 3.166 13.236.46 5.636.461 12.747.461 22.287v111.165c0 8.482-.001 14.798-.41 19.804-.408 4.997-1.219 8.622-2.805 11.734a29.497 29.497 0 0 1-12.89 12.89c-3.112 1.586-6.737 2.397-11.734 2.805-5.006.409-11.322.41-19.804.41H179.393c-8.482 0-14.798-.001-19.804-.41-4.997-.408-8.622-1.219-11.734-2.805a29.497 29.497 0 0 1-12.89-12.89c-1.586-3.112-2.397-6.737-2.805-11.734-.409-5.006-.41-11.322-.41-19.804z" stroke="#A9E5FF" stroke-width="1.5"/><path opacity=".6" d="M188.57 152.639V71.386c0-7.423.001-12.945.358-17.32.357-4.368 1.066-7.526 2.445-10.233a25.711 25.711 0 0 1 11.238-11.238c2.707-1.38 5.866-2.088 10.232-2.445 4.376-.357 9.898-.358 17.321-.358h249.031c7.423 0 12.945 0 17.321.358 4.367.357 7.525 1.066 10.232 2.445a25.711 25.711 0 0 1 11.238 11.238c1.379 2.707 2.088 5.865 2.445 10.232.357 4.376.358 9.898.358 17.321v81.253c0 3.188-.001 5.535-.152 7.388-.151 1.845-.447 3.136-1.003 4.226a10.593 10.593 0 0 1-4.629 4.629c-1.089.555-2.38.852-4.225 1.002-1.854.152-4.2.152-7.389.152H205.968c-3.189 0-5.535 0-7.389-.152-1.845-.15-3.135-.447-4.225-1.002a10.593 10.593 0 0 1-4.629-4.629c-.555-1.09-.852-2.381-1.003-4.226-.151-1.853-.152-4.2-.152-7.388z" stroke="#1B6BFF" stroke-width="1.5"/><path opacity=".5" d="M216.75 130.902V68.246c0-5.306.001-9.24.255-12.355.254-3.106.756-5.33 1.724-7.229a18.15 18.15 0 0 1 7.933-7.933c1.899-.968 4.123-1.47 7.229-1.724 3.115-.254 7.049-.255 12.355-.255h216.508c5.306 0 9.24 0 12.355.255 3.106.254 5.33.756 7.229 1.724a18.15 18.15 0 0 1 7.933 7.933c.968 1.899 1.47 4.123 1.724 7.229.254 3.115.255 7.049.255 12.355v62.656c0 2.129-.001 3.682-.101 4.905-.099 1.214-.292 2.038-.641 2.724a6.809 6.809 0 0 1-2.977 2.977c-.686.349-1.51.542-2.724.641-1.223.1-2.776.101-4.905.101H228.098c-2.129 0-3.682-.001-4.905-.101-1.214-.099-2.038-.292-2.724-.641a6.809 6.809 0 0 1-2.977-2.977c-.349-.686-.542-1.51-.641-2.724-.1-1.223-.101-2.776-.101-4.905z" stroke="#2000D8" stroke-width="1.5"/><path opacity=".6" d="M245.75 103.902V72.6c0-4.493.001-7.817.215-10.448.215-2.621.638-4.487 1.447-6.075a15.248 15.248 0 0 1 6.665-6.665c1.588-.809 3.454-1.232 6.075-1.447 2.631-.214 5.955-.215 10.448-.215h168.8c4.493 0 7.817 0 10.448.215 2.621.215 4.487.638 6.075 1.447a15.249 15.249 0 0 1 6.665 6.665c.809 1.588 1.232 3.454 1.446 6.075.215 2.63.216 5.955.216 10.448v31.302c0 2.129-.001 3.682-.101 4.905-.099 1.214-.292 2.038-.641 2.724a6.809 6.809 0 0 1-2.977 2.977c-.686.349-1.51.542-2.724.641-1.223.1-2.776.101-4.905.101H257.098c-2.129 0-3.682-.001-4.905-.101-1.214-.099-2.038-.292-2.724-.641a6.809 6.809 0 0 1-2.977-2.977c-.349-.686-.542-1.51-.641-2.724-.1-1.223-.101-2.776-.101-4.905z" stroke="#21008F" stroke-width="1.5"/><rect x="102.75" y="254.25" width="248.5" height="503.5" rx="48.399" transform="rotate(-90 102.75 254.25)" stroke="#CFE2FF" stroke-width="1.5"/><path d="M159.75 174.803V63.344c0-7.423.001-12.946.358-17.321.357-4.367 1.065-7.525 2.445-10.232a25.711 25.711 0 0 1 11.238-11.238c2.707-1.38 5.865-2.088 10.232-2.445 4.375-.357 9.898-.358 17.321-.358h288.164c10.6 0 18.504 0 24.771.513 6.258.51 10.817 1.528 14.737 3.526a37.058 37.058 0 0 1 16.195 16.195c1.998 3.92 3.015 8.479 3.526 14.737.512 6.267.513 14.171.513 24.77v93.312c0 4.248-.001 7.388-.204 9.872-.202 2.475-.601 4.233-1.363 5.727a14.366 14.366 0 0 1-6.281 6.281c-1.494.762-3.252 1.161-5.727 1.363-2.484.203-5.624.204-9.872.204H183.197c-4.248 0-7.388-.001-9.872-.204-2.475-.202-4.233-.601-5.727-1.363a14.366 14.366 0 0 1-6.281-6.281c-.762-1.494-1.161-3.252-1.363-5.727-.203-2.484-.204-5.624-.204-9.872z" stroke="#80D9FF" stroke-width="1.5"/><path d="M131.75 178.607V67.442c0-9.54.001-16.65.461-22.287.46-5.628 1.374-9.72 3.166-13.236a33.276 33.276 0 0 1 14.542-14.542c3.516-1.792 7.608-2.706 13.236-3.166 5.636-.46 12.747-.461 22.287-.461h339.116c9.54 0 16.651 0 22.287.461 5.628.46 9.72 1.374 13.236 3.166a33.276 33.276 0 0 1 14.542 14.542c1.792 3.516 2.706 7.608 3.166 13.236.46 5.636.461 12.747.461 22.287v111.165c0 8.482-.001 14.798-.41 19.804-.408 4.997-1.219 8.622-2.805 11.734a29.497 29.497 0 0 1-12.89 12.89c-3.112 1.586-6.737 2.397-11.734 2.805-5.006.409-11.322.41-19.804.41H179.393c-8.482 0-14.798-.001-19.804-.41-4.997-.408-8.622-1.219-11.734-2.805a29.497 29.497 0 0 1-12.89-12.89c-1.586-3.112-2.397-6.737-2.805-11.734-.409-5.006-.41-11.322-.41-19.804z" stroke="#A9E5FF" stroke-width="1.5"/><path opacity=".6" d="M188.57 152.639V71.386c0-7.423.001-12.945.358-17.32.357-4.368 1.066-7.526 2.445-10.233a25.711 25.711 0 0 1 11.238-11.238c2.707-1.38 5.866-2.088 10.232-2.445 4.376-.357 9.898-.358 17.321-.358h249.031c7.423 0 12.945 0 17.321.358 4.367.357 7.525 1.066 10.232 2.445a25.711 25.711 0 0 1 11.238 11.238c1.379 2.707 2.088 5.865 2.445 10.232.357 4.376.358 9.898.358 17.321v81.253c0 3.188-.001 5.535-.152 7.388-.151 1.845-.447 3.136-1.003 4.226a10.593 10.593 0 0 1-4.629 4.629c-1.089.555-2.38.852-4.225 1.002-1.854.152-4.2.152-7.389.152H205.968c-3.189 0-5.535 0-7.389-.152-1.845-.15-3.135-.447-4.225-1.002a10.593 10.593 0 0 1-4.629-4.629c-.555-1.09-.852-2.381-1.003-4.226-.151-1.853-.152-4.2-.152-7.388z" stroke="#1B6BFF" stroke-width="1.5"/><path opacity=".5" d="M216.75 130.902V68.246c0-5.306.001-9.24.255-12.355.254-3.106.756-5.33 1.724-7.229a18.15 18.15 0 0 1 7.933-7.933c1.899-.968 4.123-1.47 7.229-1.724 3.115-.254 7.049-.255 12.355-.255h216.508c5.306 0 9.24 0 12.355.255 3.106.254 5.33.756 7.229 1.724a18.15 18.15 0 0 1 7.933 7.933c.968 1.899 1.47 4.123 1.724 7.229.254 3.115.255 7.049.255 12.355v62.656c0 2.129-.001 3.682-.101 4.905-.099 1.214-.292 2.038-.641 2.724a6.809 6.809 0 0 1-2.977 2.977c-.686.349-1.51.542-2.724.641-1.223.1-2.776.101-4.905.101H228.098c-2.129 0-3.682-.001-4.905-.101-1.214-.099-2.038-.292-2.724-.641a6.809 6.809 0 0 1-2.977-2.977c-.349-.686-.542-1.51-.641-2.724-.1-1.223-.101-2.776-.101-4.905z" stroke="#2000D8" stroke-width="1.5"/><path opacity=".6" d="M245.75 103.902V72.6c0-4.493.001-7.817.215-10.448.215-2.621.638-4.487 1.447-6.075a15.248 15.248 0 0 1 6.665-6.665c1.588-.809 3.454-1.232 6.075-1.447 2.631-.214 5.955-.215 10.448-.215h168.8c4.493 0 7.817 0 10.448.215 2.621.215 4.487.638 6.075 1.447a15.249 15.249 0 0 1 6.665 6.665c.809 1.588 1.232 3.454 1.446 6.075.215 2.63.216 5.955.216 10.448v31.302c0 2.129-.001 3.682-.101 4.905-.099 1.214-.292 2.038-.641 2.724a6.809 6.809 0 0 1-2.977 2.977c-.686.349-1.51.542-2.724.641-1.223.1-2.776.101-4.905.101H257.098c-2.129 0-3.682-.001-4.905-.101-1.214-.099-2.038-.292-2.724-.641a6.809 6.809 0 0 1-2.977-2.977c-.349-.686-.542-1.51-.641-2.724-.1-1.223-.101-2.776-.101-4.905z" stroke="#21008F" stroke-width="1.5"/></g><defs><clipPath id="a"><path fill="#fff" d="M0 0h710v180H0z"/></clipPath></defs></svg>