<svg width="296" height="48" fill="none" xmlns="http://www.w3.org/2000/svg"><path fill-rule="evenodd" clip-rule="evenodd" d="M147.243 9.216v13.068h-8.404v3.608h9.24c0 .044-.22 7.26-.352 9.636-.132 3.432-1.452 4.532-4.972 4.532h-2.816l-.924-4.576h2.376c1.54 0 1.936-.396 1.98-1.892.024-.334.047-1.003.071-1.672.02-.567.041-1.133.061-1.496h-4.664V44.68h-4.708v-9.196c-2.244 2.772-4.972 5.324-7.92 7.436l-2.244-4.664c3.256-2.288 6.248-4.84 8.536-7.832h-7.436l1.056-12.76h8.008v-3.828h-8.492v-4.62h4.752a87.093 87.093 0 0 0-2.64-4.268l4.224-1.892c.663.852 1.462 2.18 2.283 3.546l.001.002.005.008.006.01c.319.53.642 1.066.961 1.582l-1.892 1.012h4.048c1.144-1.892 2.64-4.444 3.476-6.028l4.488 1.408a285.486 285.486 0 0 1-2.816 4.62h4.708zm7.48 29.788c2.332 0 2.596-.44 2.596-2.332V3.98h4.84v34.408c0 4.18-1.364 5.544-6.16 5.544h-4.4l-1.056-4.928h4.18zm-4.752-4.84V8.116h4.62v26.048h-4.62zm-7.392-16.5v-3.828h-3.74v3.828h3.74zm-8.448 8.228v-3.608h-3.784l-.396 3.608h4.18zm46.288-14.036h-10.34V6.224h35.376c-.059.948-.278 6.52-.517 12.612v.005c-.294 7.48-.618 15.74-.715 17.17-.264 5.545-2.376 7.393-8.844 7.393h-7.788l-1.188-5.544h6.952c4.048 0 4.884-.572 5.148-4.136.176-2.64.924-20.108.924-21.868h-13.376a375.8 375.8 0 0 1-.165 3.342c-.063 1.194-.121 2.293-.143 2.95-.616 13.112-3.3 19.228-13.112 26.796l-4.532-4.444c9.064-7.04 11.264-11.748 11.968-23.232.088-1.1.264-3.564.352-5.412zm45.452-.088c-1.628-2.156-4.84-5.896-6.6-7.92l-4.136 3.256c1.76 2.2 4.884 6.16 6.336 8.14l4.4-3.476zm15.752 6.248V4.244h-5.632v13.772h-10.252v5.412h10.252v20.944h5.632V23.428h10.208v-5.412h-10.208zm-19.36-.88h-9.768v5.368h4.224v14.168c0 1.276-.088 1.98-.968 2.816l3.168 3.916 10.868-8.184-1.848-5.28-5.676 4.488V17.136zm50.424 21.252c.528 0 1.056-.352 1.452-2.376.308-1.364.704-3.74.836-4.928l4.488 1.848-.069.299c-.457 1.996-.878 3.834-1.339 5.553-1.056 4.048-2.816 5.456-5.368 5.456-2.112 0-3.916-.968-6.16-4.752a19.131 19.131 0 0 1-1.54-3.3 74.82 74.82 0 0 1-6.16 4.092l-2.728-4.532c2.728-1.54 5.148-3.124 7.348-4.884-.704-3.036-1.232-6.644-1.628-11l-4.884.704-.44-5.06 4.972-.704-.132-2.508c-.076-1.998-.167-4.112-.238-5.782l-.002-.037v-.02c-.052-1.21-.094-2.181-.112-2.697h5.104c.011.279.026.724.045 1.311l.001.005v.005c.054 1.636.144 4.37.306 7.699 0 .22.011.44.022.66.011.22.022.44.022.66l11.528-1.584.484 5.016-11.704 1.628c.22 3.036.484 5.632.836 7.876 2.112-2.244 3.916-4.752 5.456-7.612l4.092 2.64c-2.508 4.312-5.104 7.744-8.272 10.736.484 1.54 1.056 2.772 1.716 3.784.924 1.364 1.54 1.804 2.068 1.804zm-1.98-34.364c1.672 1.496 4.092 3.784 5.808 5.676l-3.124 3.124c-1.54-1.76-3.872-4.18-5.544-5.852l2.86-2.948zm15.84 34.408c2.068 0 2.332-.308 2.332-2.288V4.332h5.016v34.276c0 4.004-1.056 5.5-5.984 5.5h-4.796l-1.056-5.676h4.488zm-6.292-4.4V8.248h4.84v25.784h-4.84zM31.32 20.594 20.467 31.858H18.86L7.72 20.595v22.241H.08V4.937h2.05l17.306 16.83 17.437-16.83h2.05v37.898h-7.615l.012-22.24zM48.18 4.937h7.616v37.898H48.18V4.937zm16.118 21.786V4.937h7.735v21.654c0 5.124 3.082 9.66 9.378 9.66s9.09-4.249 9.09-9.66V4.937h7.627v21.786c0 9.792-6.152 16.974-16.717 16.974-10.565 0-17.113-7.158-17.113-16.974zm50.285-21.786h-7.627v37.898h7.627V4.937z" fill="#fff" fill-opacity=".6"/><path fill-rule="evenodd" clip-rule="evenodd" d="M147.243 9.216v13.068h-8.404v3.608h9.24c0 .044-.22 7.26-.352 9.636-.132 3.432-1.452 4.532-4.972 4.532h-2.816l-.924-4.576h2.376c1.54 0 1.936-.396 1.98-1.892.024-.334.047-1.003.071-1.672.02-.567.041-1.133.061-1.496h-4.664V44.68h-4.708v-9.196c-2.244 2.772-4.972 5.324-7.92 7.436l-2.244-4.664c3.256-2.288 6.248-4.84 8.536-7.832h-7.436l1.056-12.76h8.008v-3.828h-8.492v-4.62h4.752a87.093 87.093 0 0 0-2.64-4.268l4.224-1.892c.663.852 1.462 2.18 2.283 3.546l.001.002.005.008.006.01c.319.53.642 1.066.961 1.582l-1.892 1.012h4.048c1.144-1.892 2.64-4.444 3.476-6.028l4.488 1.408a285.486 285.486 0 0 1-2.816 4.62h4.708zm7.48 29.788c2.332 0 2.596-.44 2.596-2.332V3.98h4.84v34.408c0 4.18-1.364 5.544-6.16 5.544h-4.4l-1.056-4.928h4.18zm-4.752-4.84V8.116h4.62v26.048h-4.62zm-7.392-16.5v-3.828h-3.74v3.828h3.74zm-8.448 8.228v-3.608h-3.784l-.396 3.608h4.18zm46.288-14.036h-10.34V6.224h35.376c-.059.948-.278 6.52-.517 12.612v.005c-.294 7.48-.618 15.74-.715 17.17-.264 5.545-2.376 7.393-8.844 7.393h-7.788l-1.188-5.544h6.952c4.048 0 4.884-.572 5.148-4.136.176-2.64.924-20.108.924-21.868h-13.376a375.8 375.8 0 0 1-.165 3.342c-.063 1.194-.121 2.293-.143 2.95-.616 13.112-3.3 19.228-13.112 26.796l-4.532-4.444c9.064-7.04 11.264-11.748 11.968-23.232.088-1.1.264-3.564.352-5.412zm45.452-.088c-1.628-2.156-4.84-5.896-6.6-7.92l-4.136 3.256c1.76 2.2 4.884 6.16 6.336 8.14l4.4-3.476zm15.752 6.248V4.244h-5.632v13.772h-10.252v5.412h10.252v20.944h5.632V23.428h10.208v-5.412h-10.208zm-19.36-.88h-9.768v5.368h4.224v14.168c0 1.276-.088 1.98-.968 2.816l3.168 3.916 10.868-8.184-1.848-5.28-5.676 4.488V17.136zm50.424 21.252c.528 0 1.056-.352 1.452-2.376.308-1.364.704-3.74.836-4.928l4.488 1.848-.069.299c-.457 1.996-.878 3.834-1.339 5.553-1.056 4.048-2.816 5.456-5.368 5.456-2.112 0-3.916-.968-6.16-4.752a19.131 19.131 0 0 1-1.54-3.3 74.82 74.82 0 0 1-6.16 4.092l-2.728-4.532c2.728-1.54 5.148-3.124 7.348-4.884-.704-3.036-1.232-6.644-1.628-11l-4.884.704-.44-5.06 4.972-.704-.132-2.508c-.076-1.998-.167-4.112-.238-5.782l-.002-.037v-.02c-.052-1.21-.094-2.181-.112-2.697h5.104c.011.279.026.724.045 1.311l.001.005v.005c.054 1.636.144 4.37.306 7.699 0 .22.011.44.022.66.011.22.022.44.022.66l11.528-1.584.484 5.016-11.704 1.628c.22 3.036.484 5.632.836 7.876 2.112-2.244 3.916-4.752 5.456-7.612l4.092 2.64c-2.508 4.312-5.104 7.744-8.272 10.736.484 1.54 1.056 2.772 1.716 3.784.924 1.364 1.54 1.804 2.068 1.804zm-1.98-34.364c1.672 1.496 4.092 3.784 5.808 5.676l-3.124 3.124c-1.54-1.76-3.872-4.18-5.544-5.852l2.86-2.948zm15.84 34.408c2.068 0 2.332-.308 2.332-2.288V4.332h5.016v34.276c0 4.004-1.056 5.5-5.984 5.5h-4.796l-1.056-5.676h4.488zm-6.292-4.4V8.248h4.84v25.784h-4.84zM31.32 20.594 20.467 31.858H18.86L7.72 20.595v22.241H.08V4.937h2.05l17.306 16.83 17.437-16.83h2.05v37.898h-7.615l.012-22.24zM48.18 4.937h7.616v37.898H48.18V4.937zm16.118 21.786V4.937h7.735v21.654c0 5.124 3.082 9.66 9.378 9.66s9.09-4.249 9.09-9.66V4.937h7.627v21.786c0 9.792-6.152 16.974-16.717 16.974-10.565 0-17.113-7.158-17.113-16.974zm50.285-21.786h-7.627v37.898h7.627V4.937z" fill="url(#a)"/><path fill-rule="evenodd" clip-rule="evenodd" d="M147.243 9.216v13.068h-8.404v3.608h9.24c0 .044-.22 7.26-.352 9.636-.132 3.432-1.452 4.532-4.972 4.532h-2.816l-.924-4.576h2.376c1.54 0 1.936-.396 1.98-1.892.024-.334.047-1.003.071-1.672.02-.567.041-1.133.061-1.496h-4.664V44.68h-4.708v-9.196c-2.244 2.772-4.972 5.324-7.92 7.436l-2.244-4.664c3.256-2.288 6.248-4.84 8.536-7.832h-7.436l1.056-12.76h8.008v-3.828h-8.492v-4.62h4.752a87.093 87.093 0 0 0-2.64-4.268l4.224-1.892c.663.852 1.462 2.18 2.283 3.546l.001.002.005.008.006.01c.319.53.642 1.066.961 1.582l-1.892 1.012h4.048c1.144-1.892 2.64-4.444 3.476-6.028l4.488 1.408a285.486 285.486 0 0 1-2.816 4.62h4.708zm7.48 29.788c2.332 0 2.596-.44 2.596-2.332V3.98h4.84v34.408c0 4.18-1.364 5.544-6.16 5.544h-4.4l-1.056-4.928h4.18zm-4.752-4.84V8.116h4.62v26.048h-4.62zm-7.392-16.5v-3.828h-3.74v3.828h3.74zm-8.448 8.228v-3.608h-3.784l-.396 3.608h4.18zm46.288-14.036h-10.34V6.224h35.376c-.059.948-.278 6.52-.517 12.612v.005c-.294 7.48-.618 15.74-.715 17.17-.264 5.545-2.376 7.393-8.844 7.393h-7.788l-1.188-5.544h6.952c4.048 0 4.884-.572 5.148-4.136.176-2.64.924-20.108.924-21.868h-13.376a375.8 375.8 0 0 1-.165 3.342c-.063 1.194-.121 2.293-.143 2.95-.616 13.112-3.3 19.228-13.112 26.796l-4.532-4.444c9.064-7.04 11.264-11.748 11.968-23.232.088-1.1.264-3.564.352-5.412zm45.452-.088c-1.628-2.156-4.84-5.896-6.6-7.92l-4.136 3.256c1.76 2.2 4.884 6.16 6.336 8.14l4.4-3.476zm15.752 6.248V4.244h-5.632v13.772h-10.252v5.412h10.252v20.944h5.632V23.428h10.208v-5.412h-10.208zm-19.36-.88h-9.768v5.368h4.224v14.168c0 1.276-.088 1.98-.968 2.816l3.168 3.916 10.868-8.184-1.848-5.28-5.676 4.488V17.136zm50.424 21.252c.528 0 1.056-.352 1.452-2.376.308-1.364.704-3.74.836-4.928l4.488 1.848-.069.299c-.457 1.996-.878 3.834-1.339 5.553-1.056 4.048-2.816 5.456-5.368 5.456-2.112 0-3.916-.968-6.16-4.752a19.131 19.131 0 0 1-1.54-3.3 74.82 74.82 0 0 1-6.16 4.092l-2.728-4.532c2.728-1.54 5.148-3.124 7.348-4.884-.704-3.036-1.232-6.644-1.628-11l-4.884.704-.44-5.06 4.972-.704-.132-2.508c-.076-1.998-.167-4.112-.238-5.782l-.002-.037v-.02c-.052-1.21-.094-2.181-.112-2.697h5.104c.011.279.026.724.045 1.311l.001.005v.005c.054 1.636.144 4.37.306 7.699 0 .22.011.44.022.66.011.22.022.44.022.66l11.528-1.584.484 5.016-11.704 1.628c.22 3.036.484 5.632.836 7.876 2.112-2.244 3.916-4.752 5.456-7.612l4.092 2.64c-2.508 4.312-5.104 7.744-8.272 10.736.484 1.54 1.056 2.772 1.716 3.784.924 1.364 1.54 1.804 2.068 1.804zm-1.98-34.364c1.672 1.496 4.092 3.784 5.808 5.676l-3.124 3.124c-1.54-1.76-3.872-4.18-5.544-5.852l2.86-2.948zm15.84 34.408c2.068 0 2.332-.308 2.332-2.288V4.332h5.016v34.276c0 4.004-1.056 5.5-5.984 5.5h-4.796l-1.056-5.676h4.488zm-6.292-4.4V8.248h4.84v25.784h-4.84zM31.32 20.594 20.467 31.858H18.86L7.72 20.595v22.241H.08V4.937h2.05l17.306 16.83 17.437-16.83h2.05v37.898h-7.615l.012-22.24zM48.18 4.937h7.616v37.898H48.18V4.937zm16.118 21.786V4.937h7.735v21.654c0 5.124 3.082 9.66 9.378 9.66s9.09-4.249 9.09-9.66V4.937h7.627v21.786c0 9.792-6.152 16.974-16.717 16.974-10.565 0-17.113-7.158-17.113-16.974zm50.285-21.786h-7.627v37.898h7.627V4.937z" fill="url(#b)"/><path fill-rule="evenodd" clip-rule="evenodd" d="M147.243 9.216v13.068h-8.404v3.608h9.24c0 .044-.22 7.26-.352 9.636-.132 3.432-1.452 4.532-4.972 4.532h-2.816l-.924-4.576h2.376c1.54 0 1.936-.396 1.98-1.892.024-.334.047-1.003.071-1.672.02-.567.041-1.133.061-1.496h-4.664V44.68h-4.708v-9.196c-2.244 2.772-4.972 5.324-7.92 7.436l-2.244-4.664c3.256-2.288 6.248-4.84 8.536-7.832h-7.436l1.056-12.76h8.008v-3.828h-8.492v-4.62h4.752a87.093 87.093 0 0 0-2.64-4.268l4.224-1.892c.663.852 1.462 2.18 2.283 3.546l.001.002.005.008.006.01c.319.53.642 1.066.961 1.582l-1.892 1.012h4.048c1.144-1.892 2.64-4.444 3.476-6.028l4.488 1.408a285.486 285.486 0 0 1-2.816 4.62h4.708zm7.48 29.788c2.332 0 2.596-.44 2.596-2.332V3.98h4.84v34.408c0 4.18-1.364 5.544-6.16 5.544h-4.4l-1.056-4.928h4.18zm-4.752-4.84V8.116h4.62v26.048h-4.62zm-7.392-16.5v-3.828h-3.74v3.828h3.74zm-8.448 8.228v-3.608h-3.784l-.396 3.608h4.18zm46.288-14.036h-10.34V6.224h35.376c-.059.948-.278 6.52-.517 12.612v.005c-.294 7.48-.618 15.74-.715 17.17-.264 5.545-2.376 7.393-8.844 7.393h-7.788l-1.188-5.544h6.952c4.048 0 4.884-.572 5.148-4.136.176-2.64.924-20.108.924-21.868h-13.376a375.8 375.8 0 0 1-.165 3.342c-.063 1.194-.121 2.293-.143 2.95-.616 13.112-3.3 19.228-13.112 26.796l-4.532-4.444c9.064-7.04 11.264-11.748 11.968-23.232.088-1.1.264-3.564.352-5.412zm45.452-.088c-1.628-2.156-4.84-5.896-6.6-7.92l-4.136 3.256c1.76 2.2 4.884 6.16 6.336 8.14l4.4-3.476zm15.752 6.248V4.244h-5.632v13.772h-10.252v5.412h10.252v20.944h5.632V23.428h10.208v-5.412h-10.208zm-19.36-.88h-9.768v5.368h4.224v14.168c0 1.276-.088 1.98-.968 2.816l3.168 3.916 10.868-8.184-1.848-5.28-5.676 4.488V17.136zm50.424 21.252c.528 0 1.056-.352 1.452-2.376.308-1.364.704-3.74.836-4.928l4.488 1.848-.069.299c-.457 1.996-.878 3.834-1.339 5.553-1.056 4.048-2.816 5.456-5.368 5.456-2.112 0-3.916-.968-6.16-4.752a19.131 19.131 0 0 1-1.54-3.3 74.82 74.82 0 0 1-6.16 4.092l-2.728-4.532c2.728-1.54 5.148-3.124 7.348-4.884-.704-3.036-1.232-6.644-1.628-11l-4.884.704-.44-5.06 4.972-.704-.132-2.508c-.076-1.998-.167-4.112-.238-5.782l-.002-.037v-.02c-.052-1.21-.094-2.181-.112-2.697h5.104c.011.279.026.724.045 1.311l.001.005v.005c.054 1.636.144 4.37.306 7.699 0 .22.011.44.022.66.011.22.022.44.022.66l11.528-1.584.484 5.016-11.704 1.628c.22 3.036.484 5.632.836 7.876 2.112-2.244 3.916-4.752 5.456-7.612l4.092 2.64c-2.508 4.312-5.104 7.744-8.272 10.736.484 1.54 1.056 2.772 1.716 3.784.924 1.364 1.54 1.804 2.068 1.804zm-1.98-34.364c1.672 1.496 4.092 3.784 5.808 5.676l-3.124 3.124c-1.54-1.76-3.872-4.18-5.544-5.852l2.86-2.948zm15.84 34.408c2.068 0 2.332-.308 2.332-2.288V4.332h5.016v34.276c0 4.004-1.056 5.5-5.984 5.5h-4.796l-1.056-5.676h4.488zm-6.292-4.4V8.248h4.84v25.784h-4.84zM31.32 20.594 20.467 31.858H18.86L7.72 20.595v22.241H.08V4.937h2.05l17.306 16.83 17.437-16.83h2.05v37.898h-7.615l.012-22.24zM48.18 4.937h7.616v37.898H48.18V4.937zm16.118 21.786V4.937h7.735v21.654c0 5.124 3.082 9.66 9.378 9.66s9.09-4.249 9.09-9.66V4.937h7.627v21.786c0 9.792-6.152 16.974-16.717 16.974-10.565 0-17.113-7.158-17.113-16.974zm50.285-21.786h-7.627v37.898h7.627V4.937z" fill="url(#c)"/><path fill-rule="evenodd" clip-rule="evenodd" d="M147.243 9.216v13.068h-8.404v3.608h9.24c0 .044-.22 7.26-.352 9.636-.132 3.432-1.452 4.532-4.972 4.532h-2.816l-.924-4.576h2.376c1.54 0 1.936-.396 1.98-1.892.024-.334.047-1.003.071-1.672.02-.567.041-1.133.061-1.496h-4.664V44.68h-4.708v-9.196c-2.244 2.772-4.972 5.324-7.92 7.436l-2.244-4.664c3.256-2.288 6.248-4.84 8.536-7.832h-7.436l1.056-12.76h8.008v-3.828h-8.492v-4.62h4.752a87.093 87.093 0 0 0-2.64-4.268l4.224-1.892c.663.852 1.462 2.18 2.283 3.546l.001.002.005.008.006.01c.319.53.642 1.066.961 1.582l-1.892 1.012h4.048c1.144-1.892 2.64-4.444 3.476-6.028l4.488 1.408a285.486 285.486 0 0 1-2.816 4.62h4.708zm7.48 29.788c2.332 0 2.596-.44 2.596-2.332V3.98h4.84v34.408c0 4.18-1.364 5.544-6.16 5.544h-4.4l-1.056-4.928h4.18zm-4.752-4.84V8.116h4.62v26.048h-4.62zm-7.392-16.5v-3.828h-3.74v3.828h3.74zm-8.448 8.228v-3.608h-3.784l-.396 3.608h4.18zm46.288-14.036h-10.34V6.224h35.376c-.059.948-.278 6.52-.517 12.612v.005c-.294 7.48-.618 15.74-.715 17.17-.264 5.545-2.376 7.393-8.844 7.393h-7.788l-1.188-5.544h6.952c4.048 0 4.884-.572 5.148-4.136.176-2.64.924-20.108.924-21.868h-13.376a375.8 375.8 0 0 1-.165 3.342c-.063 1.194-.121 2.293-.143 2.95-.616 13.112-3.3 19.228-13.112 26.796l-4.532-4.444c9.064-7.04 11.264-11.748 11.968-23.232.088-1.1.264-3.564.352-5.412zm45.452-.088c-1.628-2.156-4.84-5.896-6.6-7.92l-4.136 3.256c1.76 2.2 4.884 6.16 6.336 8.14l4.4-3.476zm15.752 6.248V4.244h-5.632v13.772h-10.252v5.412h10.252v20.944h5.632V23.428h10.208v-5.412h-10.208zm-19.36-.88h-9.768v5.368h4.224v14.168c0 1.276-.088 1.98-.968 2.816l3.168 3.916 10.868-8.184-1.848-5.28-5.676 4.488V17.136zm50.424 21.252c.528 0 1.056-.352 1.452-2.376.308-1.364.704-3.74.836-4.928l4.488 1.848-.069.299c-.457 1.996-.878 3.834-1.339 5.553-1.056 4.048-2.816 5.456-5.368 5.456-2.112 0-3.916-.968-6.16-4.752a19.131 19.131 0 0 1-1.54-3.3 74.82 74.82 0 0 1-6.16 4.092l-2.728-4.532c2.728-1.54 5.148-3.124 7.348-4.884-.704-3.036-1.232-6.644-1.628-11l-4.884.704-.44-5.06 4.972-.704-.132-2.508c-.076-1.998-.167-4.112-.238-5.782l-.002-.037v-.02c-.052-1.21-.094-2.181-.112-2.697h5.104c.011.279.026.724.045 1.311l.001.005v.005c.054 1.636.144 4.37.306 7.699 0 .22.011.44.022.66.011.22.022.44.022.66l11.528-1.584.484 5.016-11.704 1.628c.22 3.036.484 5.632.836 7.876 2.112-2.244 3.916-4.752 5.456-7.612l4.092 2.64c-2.508 4.312-5.104 7.744-8.272 10.736.484 1.54 1.056 2.772 1.716 3.784.924 1.364 1.54 1.804 2.068 1.804zm-1.98-34.364c1.672 1.496 4.092 3.784 5.808 5.676l-3.124 3.124c-1.54-1.76-3.872-4.18-5.544-5.852l2.86-2.948zm15.84 34.408c2.068 0 2.332-.308 2.332-2.288V4.332h5.016v34.276c0 4.004-1.056 5.5-5.984 5.5h-4.796l-1.056-5.676h4.488zm-6.292-4.4V8.248h4.84v25.784h-4.84zM31.32 20.594 20.467 31.858H18.86L7.72 20.595v22.241H.08V4.937h2.05l17.306 16.83 17.437-16.83h2.05v37.898h-7.615l.012-22.24zM48.18 4.937h7.616v37.898H48.18V4.937zm16.118 21.786V4.937h7.735v21.654c0 5.124 3.082 9.66 9.378 9.66s9.09-4.249 9.09-9.66V4.937h7.627v21.786c0 9.792-6.152 16.974-16.717 16.974-10.565 0-17.113-7.158-17.113-16.974zm50.285-21.786h-7.627v37.898h7.627V4.937z" fill="url(#d)"/><path fill-rule="evenodd" clip-rule="evenodd" d="M147.243 9.216v13.068h-8.404v3.608h9.24c0 .044-.22 7.26-.352 9.636-.132 3.432-1.452 4.532-4.972 4.532h-2.816l-.924-4.576h2.376c1.54 0 1.936-.396 1.98-1.892.024-.334.047-1.003.071-1.672.02-.567.041-1.133.061-1.496h-4.664V44.68h-4.708v-9.196c-2.244 2.772-4.972 5.324-7.92 7.436l-2.244-4.664c3.256-2.288 6.248-4.84 8.536-7.832h-7.436l1.056-12.76h8.008v-3.828h-8.492v-4.62h4.752a87.093 87.093 0 0 0-2.64-4.268l4.224-1.892c.663.852 1.462 2.18 2.283 3.546l.001.002.005.008.006.01c.319.53.642 1.066.961 1.582l-1.892 1.012h4.048c1.144-1.892 2.64-4.444 3.476-6.028l4.488 1.408a285.486 285.486 0 0 1-2.816 4.62h4.708zm7.48 29.788c2.332 0 2.596-.44 2.596-2.332V3.98h4.84v34.408c0 4.18-1.364 5.544-6.16 5.544h-4.4l-1.056-4.928h4.18zm-4.752-4.84V8.116h4.62v26.048h-4.62zm-7.392-16.5v-3.828h-3.74v3.828h3.74zm-8.448 8.228v-3.608h-3.784l-.396 3.608h4.18zm46.288-14.036h-10.34V6.224h35.376c-.059.948-.278 6.52-.517 12.612v.005c-.294 7.48-.618 15.74-.715 17.17-.264 5.545-2.376 7.393-8.844 7.393h-7.788l-1.188-5.544h6.952c4.048 0 4.884-.572 5.148-4.136.176-2.64.924-20.108.924-21.868h-13.376a375.8 375.8 0 0 1-.165 3.342c-.063 1.194-.121 2.293-.143 2.95-.616 13.112-3.3 19.228-13.112 26.796l-4.532-4.444c9.064-7.04 11.264-11.748 11.968-23.232.088-1.1.264-3.564.352-5.412zm45.452-.088c-1.628-2.156-4.84-5.896-6.6-7.92l-4.136 3.256c1.76 2.2 4.884 6.16 6.336 8.14l4.4-3.476zm15.752 6.248V4.244h-5.632v13.772h-10.252v5.412h10.252v20.944h5.632V23.428h10.208v-5.412h-10.208zm-19.36-.88h-9.768v5.368h4.224v14.168c0 1.276-.088 1.98-.968 2.816l3.168 3.916 10.868-8.184-1.848-5.28-5.676 4.488V17.136zm50.424 21.252c.528 0 1.056-.352 1.452-2.376.308-1.364.704-3.74.836-4.928l4.488 1.848-.069.299c-.457 1.996-.878 3.834-1.339 5.553-1.056 4.048-2.816 5.456-5.368 5.456-2.112 0-3.916-.968-6.16-4.752a19.131 19.131 0 0 1-1.54-3.3 74.82 74.82 0 0 1-6.16 4.092l-2.728-4.532c2.728-1.54 5.148-3.124 7.348-4.884-.704-3.036-1.232-6.644-1.628-11l-4.884.704-.44-5.06 4.972-.704-.132-2.508c-.076-1.998-.167-4.112-.238-5.782l-.002-.037v-.02c-.052-1.21-.094-2.181-.112-2.697h5.104c.011.279.026.724.045 1.311l.001.005v.005c.054 1.636.144 4.37.306 7.699 0 .22.011.44.022.66.011.22.022.44.022.66l11.528-1.584.484 5.016-11.704 1.628c.22 3.036.484 5.632.836 7.876 2.112-2.244 3.916-4.752 5.456-7.612l4.092 2.64c-2.508 4.312-5.104 7.744-8.272 10.736.484 1.54 1.056 2.772 1.716 3.784.924 1.364 1.54 1.804 2.068 1.804zm-1.98-34.364c1.672 1.496 4.092 3.784 5.808 5.676l-3.124 3.124c-1.54-1.76-3.872-4.18-5.544-5.852l2.86-2.948zm15.84 34.408c2.068 0 2.332-.308 2.332-2.288V4.332h5.016v34.276c0 4.004-1.056 5.5-5.984 5.5h-4.796l-1.056-5.676h4.488zm-6.292-4.4V8.248h4.84v25.784h-4.84zM31.32 20.594 20.467 31.858H18.86L7.72 20.595v22.241H.08V4.937h2.05l17.306 16.83 17.437-16.83h2.05v37.898h-7.615l.012-22.24zM48.18 4.937h7.616v37.898H48.18V4.937zm16.118 21.786V4.937h7.735v21.654c0 5.124 3.082 9.66 9.378 9.66s9.09-4.249 9.09-9.66V4.937h7.627v21.786c0 9.792-6.152 16.974-16.717 16.974-10.565 0-17.113-7.158-17.113-16.974zm50.285-21.786h-7.627v37.898h7.627V4.937z" fill="url(#e)"/><defs><linearGradient id="a" x1="154.164" y1="-11.296" x2="255.38" y2="-7.063" gradientUnits="userSpaceOnUse"><stop stop-color="#40DAFF"/><stop offset=".432" stop-color="#73C4FF"/><stop offset="1" stop-color="#4574FF"/></linearGradient><linearGradient id="b" x1="78.404" y1="16.778" x2="220.394" y2="41.258" gradientUnits="userSpaceOnUse"><stop stop-color="#FE6E13"/><stop offset="1" stop-color="#FFB415"/></linearGradient><linearGradient id="c" x1="294" y1="28.5" x2="0" y2="11.5" gradientUnits="userSpaceOnUse"><stop stop-color="#51B2AA"/><stop offset="1" stop-color="#54B7D0"/></linearGradient><linearGradient id="d" x1="-5" y1="24" x2="296.123" y2="-30.536" gradientUnits="userSpaceOnUse"><stop stop-color="#73C4F1"/><stop offset="1" stop-color="#4584FF"/></linearGradient><linearGradient id="e" x1="-6.5" y1="14.5" x2="309.5" y2="17" gradientUnits="userSpaceOnUse"><stop stop-color="#34F1DD" stop-opacity=".3"/><stop offset="1" stop-color="#0D84FF" stop-opacity=".75"/></linearGradient></defs></svg>