<svg width="296" height="48" fill="none" xmlns="http://www.w3.org/2000/svg"><path fill-rule="evenodd" clip-rule="evenodd" d="M256.099 14.804c1.584-1.188 2.816-2.948 3.696-5.06l1.98.176V8.688h-4.884V5.52h4.884V3.936h4.532V5.52h3.74V3.936h4.488V5.52h4.664v3.168h-4.664v1.496h-4.488V8.688h-3.74v1.408h-2.376l-.264.704h13.596c0 .118-.009.245-.019.385v.001a8.055 8.055 0 0 0-.025.582c2.816-2.86 3.916-5.5 5.016-8.316l4.444.616a62.05 62.05 0 0 1-1.1 2.508h10.076v3.784h-1.892c-.836 2.64-2.024 4.928-3.696 6.82 1.584.836 3.476 1.54 5.852 2.024l-1.76 4.048c-2.992-.836-5.368-1.936-7.348-3.256-1.98 1.32-4.4 2.42-7.392 3.256l-2.112-3.828c2.552-.616 4.62-1.32 6.248-2.2-.968-1.056-1.76-2.2-2.464-3.432-.225.259-.442.524-.661.791-.339.414-.681.832-1.055 1.233l-2.2-3.432a495.453 495.453 0 0 0-.22 6.996c-.088 2.904-1.364 3.784-4.928 3.784h-2.332l-.176-1.188h-10.472V17.18a6.5 6.5 0 0 0-.198.165h-.001a3.122 3.122 0 0 1-.417.319l-2.332-2.86zm27.72-4.444c.792 1.716 1.76 3.212 2.992 4.444 1.144-1.232 1.98-2.684 2.64-4.444h-5.632zm-10.909 7.83c.05-.639.217-2.81.217-4.354h-11.132a8.54 8.54 0 0 1-.924 1.276h9.24v4.62h.748c1.584 0 1.804-.308 1.848-1.496l.003-.047zm-10.299-.614v1.892h4.092v-1.892h-4.092zm29.7 11.836v3.124h-12.496v1.848h15.752v3.784h-15.752v.968c0 3.564-1.056 4.884-5.72 4.884h-6.82l-.792-3.74h5.28c2.156 0 2.508-.088 2.508-1.716v-.396h-17.644v-3.784h17.644v-1.848h-14.388v-3.124h14.388V27.74c-5.72.132-11.22.176-15.004.132l-.44-3.52c9.768.132 25.344-.176 33.528-.704l.396 3.476c-3.476.22-8.096.396-12.936.528v1.76h12.496zm-133.98 6.204c.088-1.144.132-4.268.044-5.104l5.192.924a268.1 268.1 0 0 1-.264 5.94c-.176 4.752-1.892 6.028-6.556 6.028h-4.84c-4.532 0-5.984-1.452-5.984-6.204V24.968h-5.544v.044c-.572 9.944-2.992 14.476-12.584 19.536l-3.828-4.928c8.184-3.74 10.516-6.512 10.78-14.652h-9.592V19.6h16.236V3.584h5.456V19.6h16.06v5.368h-11.484v10.604c0 1.76.528 2.156 2.376 2.156h2.2c1.98 0 2.244-.264 2.332-2.112zm-8.932-20.9c2.64-2.728 5.632-6.248 7.656-9.108l4.224 3.3c-2.156 2.772-5.324 6.688-7.788 9.416l-4.092-3.608zm-18.656-8.888c1.98 2.112 5.852 6.556 7.832 9.064l-4.268 3.476c-1.98-2.64-5.5-6.908-7.524-9.24l3.96-3.3zm60.588 14.476v1.232h16.104v5.28h-16.104v10.78c0 4.62-1.54 6.028-6.776 6.028h-6.072l-1.1-5.632h5.28c2.552 0 2.904-.352 2.904-2.596v-8.58h-16.676v-5.28h16.676v-3.872l10.648-6.644h-24.112V5.74h33.044v5.324l-13.816 9.24zm51.26 23.584h5.676V4.112h-5.676v39.776zM214.299 10.14h15.312v5.016h-14.212l-1.144 14.96h15.224c-.044 1.32-.264 4.136-.352 5.148-.132 2.552-1.012 2.948-4.4 2.948h-7.04l.968 5.236h7.656c6.424 0 8.096-1.452 8.404-6.644.176-2.552.66-10.472.704-11.748h-15.224l.44-4.884h14.696V5.124h-21.032v5.016zM31.32 20.594 20.467 31.858H18.86L7.72 20.595v22.241H.08V4.937h2.05l17.306 16.83 17.437-16.83h2.05v37.898h-7.615l.012-22.24zM48.18 4.937h7.616v37.898H48.18V4.937zm16.118 21.786V4.937h7.735v21.654c0 5.124 3.082 9.66 9.378 9.66s9.09-4.249 9.09-9.66V4.937h7.627v21.786c0 9.792-6.152 16.974-16.717 16.974-10.565 0-17.113-7.158-17.113-16.974zm50.285-21.786h-7.627v37.898h7.627V4.937z" fill="#fff" fill-opacity=".6"/><path fill-rule="evenodd" clip-rule="evenodd" d="M256.099 14.804c1.584-1.188 2.816-2.948 3.696-5.06l1.98.176V8.688h-4.884V5.52h4.884V3.936h4.532V5.52h3.74V3.936h4.488V5.52h4.664v3.168h-4.664v1.496h-4.488V8.688h-3.74v1.408h-2.376l-.264.704h13.596c0 .118-.009.245-.019.385v.001a8.055 8.055 0 0 0-.025.582c2.816-2.86 3.916-5.5 5.016-8.316l4.444.616a62.05 62.05 0 0 1-1.1 2.508h10.076v3.784h-1.892c-.836 2.64-2.024 4.928-3.696 6.82 1.584.836 3.476 1.54 5.852 2.024l-1.76 4.048c-2.992-.836-5.368-1.936-7.348-3.256-1.98 1.32-4.4 2.42-7.392 3.256l-2.112-3.828c2.552-.616 4.62-1.32 6.248-2.2-.968-1.056-1.76-2.2-2.464-3.432-.225.259-.442.524-.661.791-.339.414-.681.832-1.055 1.233l-2.2-3.432a495.453 495.453 0 0 0-.22 6.996c-.088 2.904-1.364 3.784-4.928 3.784h-2.332l-.176-1.188h-10.472V17.18a6.5 6.5 0 0 0-.198.165h-.001a3.122 3.122 0 0 1-.417.319l-2.332-2.86zm27.72-4.444c.792 1.716 1.76 3.212 2.992 4.444 1.144-1.232 1.98-2.684 2.64-4.444h-5.632zm-10.909 7.83c.05-.639.217-2.81.217-4.354h-11.132a8.54 8.54 0 0 1-.924 1.276h9.24v4.62h.748c1.584 0 1.804-.308 1.848-1.496l.003-.047zm-10.299-.614v1.892h4.092v-1.892h-4.092zm29.7 11.836v3.124h-12.496v1.848h15.752v3.784h-15.752v.968c0 3.564-1.056 4.884-5.72 4.884h-6.82l-.792-3.74h5.28c2.156 0 2.508-.088 2.508-1.716v-.396h-17.644v-3.784h17.644v-1.848h-14.388v-3.124h14.388V27.74c-5.72.132-11.22.176-15.004.132l-.44-3.52c9.768.132 25.344-.176 33.528-.704l.396 3.476c-3.476.22-8.096.396-12.936.528v1.76h12.496zm-133.98 6.204c.088-1.144.132-4.268.044-5.104l5.192.924a268.1 268.1 0 0 1-.264 5.94c-.176 4.752-1.892 6.028-6.556 6.028h-4.84c-4.532 0-5.984-1.452-5.984-6.204V24.968h-5.544v.044c-.572 9.944-2.992 14.476-12.584 19.536l-3.828-4.928c8.184-3.74 10.516-6.512 10.78-14.652h-9.592V19.6h16.236V3.584h5.456V19.6h16.06v5.368h-11.484v10.604c0 1.76.528 2.156 2.376 2.156h2.2c1.98 0 2.244-.264 2.332-2.112zm-8.932-20.9c2.64-2.728 5.632-6.248 7.656-9.108l4.224 3.3c-2.156 2.772-5.324 6.688-7.788 9.416l-4.092-3.608zm-18.656-8.888c1.98 2.112 5.852 6.556 7.832 9.064l-4.268 3.476c-1.98-2.64-5.5-6.908-7.524-9.24l3.96-3.3zm60.588 14.476v1.232h16.104v5.28h-16.104v10.78c0 4.62-1.54 6.028-6.776 6.028h-6.072l-1.1-5.632h5.28c2.552 0 2.904-.352 2.904-2.596v-8.58h-16.676v-5.28h16.676v-3.872l10.648-6.644h-24.112V5.74h33.044v5.324l-13.816 9.24zm51.26 23.584h5.676V4.112h-5.676v39.776zM214.299 10.14h15.312v5.016h-14.212l-1.144 14.96h15.224c-.044 1.32-.264 4.136-.352 5.148-.132 2.552-1.012 2.948-4.4 2.948h-7.04l.968 5.236h7.656c6.424 0 8.096-1.452 8.404-6.644.176-2.552.66-10.472.704-11.748h-15.224l.44-4.884h14.696V5.124h-21.032v5.016zM31.32 20.594 20.467 31.858H18.86L7.72 20.595v22.241H.08V4.937h2.05l17.306 16.83 17.437-16.83h2.05v37.898h-7.615l.012-22.24zM48.18 4.937h7.616v37.898H48.18V4.937zm16.118 21.786V4.937h7.735v21.654c0 5.124 3.082 9.66 9.378 9.66s9.09-4.249 9.09-9.66V4.937h7.627v21.786c0 9.792-6.152 16.974-16.717 16.974-10.565 0-17.113-7.158-17.113-16.974zm50.285-21.786h-7.627v37.898h7.627V4.937z" fill="url(#a)"/><path fill-rule="evenodd" clip-rule="evenodd" d="M256.099 14.804c1.584-1.188 2.816-2.948 3.696-5.06l1.98.176V8.688h-4.884V5.52h4.884V3.936h4.532V5.52h3.74V3.936h4.488V5.52h4.664v3.168h-4.664v1.496h-4.488V8.688h-3.74v1.408h-2.376l-.264.704h13.596c0 .118-.009.245-.019.385v.001a8.055 8.055 0 0 0-.025.582c2.816-2.86 3.916-5.5 5.016-8.316l4.444.616a62.05 62.05 0 0 1-1.1 2.508h10.076v3.784h-1.892c-.836 2.64-2.024 4.928-3.696 6.82 1.584.836 3.476 1.54 5.852 2.024l-1.76 4.048c-2.992-.836-5.368-1.936-7.348-3.256-1.98 1.32-4.4 2.42-7.392 3.256l-2.112-3.828c2.552-.616 4.62-1.32 6.248-2.2-.968-1.056-1.76-2.2-2.464-3.432-.225.259-.442.524-.661.791-.339.414-.681.832-1.055 1.233l-2.2-3.432a495.453 495.453 0 0 0-.22 6.996c-.088 2.904-1.364 3.784-4.928 3.784h-2.332l-.176-1.188h-10.472V17.18a6.5 6.5 0 0 0-.198.165h-.001a3.122 3.122 0 0 1-.417.319l-2.332-2.86zm27.72-4.444c.792 1.716 1.76 3.212 2.992 4.444 1.144-1.232 1.98-2.684 2.64-4.444h-5.632zm-10.909 7.83c.05-.639.217-2.81.217-4.354h-11.132a8.54 8.54 0 0 1-.924 1.276h9.24v4.62h.748c1.584 0 1.804-.308 1.848-1.496l.003-.047zm-10.299-.614v1.892h4.092v-1.892h-4.092zm29.7 11.836v3.124h-12.496v1.848h15.752v3.784h-15.752v.968c0 3.564-1.056 4.884-5.72 4.884h-6.82l-.792-3.74h5.28c2.156 0 2.508-.088 2.508-1.716v-.396h-17.644v-3.784h17.644v-1.848h-14.388v-3.124h14.388V27.74c-5.72.132-11.22.176-15.004.132l-.44-3.52c9.768.132 25.344-.176 33.528-.704l.396 3.476c-3.476.22-8.096.396-12.936.528v1.76h12.496zm-133.98 6.204c.088-1.144.132-4.268.044-5.104l5.192.924a268.1 268.1 0 0 1-.264 5.94c-.176 4.752-1.892 6.028-6.556 6.028h-4.84c-4.532 0-5.984-1.452-5.984-6.204V24.968h-5.544v.044c-.572 9.944-2.992 14.476-12.584 19.536l-3.828-4.928c8.184-3.74 10.516-6.512 10.78-14.652h-9.592V19.6h16.236V3.584h5.456V19.6h16.06v5.368h-11.484v10.604c0 1.76.528 2.156 2.376 2.156h2.2c1.98 0 2.244-.264 2.332-2.112zm-8.932-20.9c2.64-2.728 5.632-6.248 7.656-9.108l4.224 3.3c-2.156 2.772-5.324 6.688-7.788 9.416l-4.092-3.608zm-18.656-8.888c1.98 2.112 5.852 6.556 7.832 9.064l-4.268 3.476c-1.98-2.64-5.5-6.908-7.524-9.24l3.96-3.3zm60.588 14.476v1.232h16.104v5.28h-16.104v10.78c0 4.62-1.54 6.028-6.776 6.028h-6.072l-1.1-5.632h5.28c2.552 0 2.904-.352 2.904-2.596v-8.58h-16.676v-5.28h16.676v-3.872l10.648-6.644h-24.112V5.74h33.044v5.324l-13.816 9.24zm51.26 23.584h5.676V4.112h-5.676v39.776zM214.299 10.14h15.312v5.016h-14.212l-1.144 14.96h15.224c-.044 1.32-.264 4.136-.352 5.148-.132 2.552-1.012 2.948-4.4 2.948h-7.04l.968 5.236h7.656c6.424 0 8.096-1.452 8.404-6.644.176-2.552.66-10.472.704-11.748h-15.224l.44-4.884h14.696V5.124h-21.032v5.016zM31.32 20.594 20.467 31.858H18.86L7.72 20.595v22.241H.08V4.937h2.05l17.306 16.83 17.437-16.83h2.05v37.898h-7.615l.012-22.24zM48.18 4.937h7.616v37.898H48.18V4.937zm16.118 21.786V4.937h7.735v21.654c0 5.124 3.082 9.66 9.378 9.66s9.09-4.249 9.09-9.66V4.937h7.627v21.786c0 9.792-6.152 16.974-16.717 16.974-10.565 0-17.113-7.158-17.113-16.974zm50.285-21.786h-7.627v37.898h7.627V4.937z" fill="url(#b)"/><defs><linearGradient id="a" x1="154.208" y1="-11.604" x2="255.424" y2="-7.371" gradientUnits="userSpaceOnUse"><stop stop-color="#40DAFF"/><stop offset=".432" stop-color="#73C4FF"/><stop offset="1" stop-color="#4574FF"/></linearGradient><linearGradient id="b" x1="42.5" y1="11" x2="289.928" y2="38.605" gradientUnits="userSpaceOnUse"><stop stop-color="#73FFE6"/><stop offset="1" stop-color="#31BDE9"/></linearGradient></defs></svg>